<?xml version="1.0" standalone="no"?>
<!DOCTYPE svg PUBLIC "-//W3C//DTD SVG 20010904//EN"
 "http://www.w3.org/TR/2001/REC-SVG-20010904/DTD/svg10.dtd">
<svg version="1.0" xmlns="http://www.w3.org/2000/svg"
 width="500.000000pt" height="500.000000pt" viewBox="0 0 500.000000 500.000000"
 preserveAspectRatio="xMidYMid meet">

<g transform="translate(0.000000,500.000000) scale(0.100000,-0.100000)"
fill="#000000" stroke="none">
<path d="M2454 4845 c-4 -18 -13 -25 -31 -25 -22 0 -24 -4 -21 -37 2 -31 7
-39 26 -41 28 -4 29 -37 1 -53 -16 -8 -20 -18 -17 -39 4 -26 1 -29 -56 -46
-70 -21 -143 -76 -171 -127 -13 -25 -26 -37 -41 -37 -41 0 -54 -11 -54 -45 0
-19 5 -37 10 -40 14 -9 13 -58 -2 -73 -9 -9 -9 -23 1 -60 8 -35 9 -56 1 -76
-8 -22 -7 -35 6 -59 9 -18 20 -39 24 -47 4 -9 6 -52 4 -96 l-3 -80 55 -47 c31
-26 60 -47 65 -47 5 0 8 -10 6 -22 -1 -17 6 -27 30 -38 18 -8 33 -21 33 -28 0
-16 -28 -72 -37 -72 -8 0 -316 141 -325 149 -4 3 -12 46 -17 94 -23 203 -130
317 -295 317 -79 0 -158 -18 -205 -46 -45 -26 -41 -45 19 -89 l34 -25 -31 0
c-17 0 -37 7 -44 16 -9 12 -24 15 -51 11 -21 -3 -41 -1 -44 4 -3 5 -15 9 -28
9 -12 0 -27 5 -33 11 -15 15 -51 2 -64 -22 -12 -24 -3 -59 16 -59 8 0 19 -9
25 -20 6 -11 20 -20 30 -20 13 0 20 -7 20 -18 0 -21 30 -52 49 -52 15 0 72
-40 89 -62 7 -10 22 -18 33 -18 26 0 24 -23 -6 -57 l-24 -28 -1 26 c0 22 -8
30 -47 47 l-48 21 -36 -36 c-20 -19 -39 -48 -43 -63 -4 -23 -9 -27 -26 -23
-15 4 -31 -4 -56 -28 -31 -30 -34 -38 -34 -90 0 -48 -4 -60 -27 -83 -31 -31
-37 -29 -23 9 12 31 33 216 25 223 -3 3 -14 -3 -24 -12 -26 -24 -37 -15 -45
35 -12 76 -56 129 -56 68 0 -11 -20 -71 -45 -133 -24 -62 -50 -137 -56 -166
l-11 -53 -34 39 c-18 21 -40 53 -48 69 -15 29 -16 27 -16 -62 0 -100 22 -189
59 -241 11 -17 21 -34 21 -39 -1 -4 -21 -21 -46 -37 -54 -34 -94 -90 -101
-144 -4 -31 2 -54 30 -113 47 -96 65 -168 78 -309 6 -63 18 -130 26 -148 18
-37 73 -103 180 -212 l74 -76 -98 4 -98 3 50 -44 50 -45 -105 -32 c-87 -27
-177 -62 -200 -78 -8 -5 23 -22 65 -33 34 -10 37 -13 20 -20 -11 -4 -33 -11
-50 -14 l-30 -7 25 -13 c14 -7 45 -16 70 -20 l45 -8 -60 -28 c-58 -26 -59 -27
-31 -34 15 -4 60 -5 100 -2 l71 6 -50 -44 -50 -45 45 0 c45 0 80 8 217 51 l71
23 37 -32 c19 -18 47 -32 61 -32 13 0 50 -11 82 -24 31 -12 66 -26 77 -31 18
-6 15 -9 -20 -25 l-40 -19 58 0 c63 -1 73 -12 27 -31 -70 -29 -3 -40 117 -19
35 6 67 8 71 4 7 -6 -33 -45 -74 -73 -16 -11 -9 -12 49 -8 37 2 67 0 67 -5 0
-5 -16 -27 -36 -49 -41 -45 -39 -46 37 -24 77 23 135 55 227 124 72 54 85 60
129 60 26 0 88 -9 137 -20 118 -26 129 -26 171 11 20 18 38 30 40 27 13 -12
-20 -80 -51 -108 -36 -31 -49 -33 -96 -15 -22 9 -68 -33 -68 -61 0 -13 9 -33
21 -45 23 -23 47 -22 163 7 69 17 107 42 136 90 l22 35 16 -23 c36 -55 68 -79
130 -98 89 -28 152 -27 180 3 28 30 28 52 -2 82 -21 21 -27 23 -65 13 -34 -9
-45 -7 -66 6 -33 21 -65 74 -65 105 0 23 0 23 35 -8 39 -34 75 -39 155 -20 25
6 80 16 122 23 l78 13 71 -54 c74 -56 211 -126 268 -138 l34 -7 -27 34 c-41
54 -36 64 31 60 l58 -3 -37 31 c-43 36 -51 66 -15 56 12 -3 63 -9 112 -12 l90
-6 -34 23 c-19 13 -30 24 -25 25 5 1 27 5 49 9 l40 7 -35 18 -35 18 30 8 c17
4 53 18 80 31 28 12 60 23 72 23 12 0 39 14 59 32 l36 32 112 -37 c68 -23 131
-37 161 -37 l50 0 -45 40 -45 39 70 2 c39 0 80 4 93 7 20 6 16 10 -29 31 -56
25 -54 33 13 45 39 7 58 23 36 30 -7 2 -26 7 -42 11 -35 7 -25 18 32 34 23 6
42 15 42 19 0 10 -98 48 -202 80 -49 15 -86 32 -85 37 2 6 23 25 46 42 l43 33
-103 0 -102 0 117 120 c135 137 153 170 161 291 12 163 43 282 93 363 19 32
23 46 17 81 -8 54 -52 116 -107 152 -24 15 -45 28 -47 29 -1 2 9 19 24 38 36
48 53 110 62 225 l6 96 -54 -61 -54 -62 -6 42 c-4 23 -25 84 -47 136 -22 52
-43 111 -47 130 -14 74 -15 75 -36 44 -10 -15 -23 -49 -29 -76 -7 -26 -15 -48
-18 -48 -3 0 -14 7 -24 17 -10 9 -20 14 -23 11 -8 -7 13 -192 25 -223 14 -38
8 -40 -23 -9 -23 23 -27 35 -27 83 0 52 -3 60 -34 90 -23 22 -41 32 -57 29
-20 -2 -25 2 -27 27 -4 38 -48 85 -79 85 -37 0 -82 -28 -89 -55 -9 -35 -22
-31 -40 10 -18 43 -18 45 3 45 10 0 26 9 38 20 51 48 65 59 87 62 15 2 28 15
37 36 8 17 18 32 22 32 4 0 23 10 43 23 41 26 46 57 16 87 -22 22 -36 25 -45
10 -3 -5 -17 -10 -30 -10 -13 0 -27 -5 -30 -10 -4 -6 -21 -8 -41 -4 -24 4 -40
2 -52 -9 -9 -8 -29 -17 -44 -19 -24 -5 -23 -1 20 37 l46 42 -44 28 c-30 19
-72 33 -129 43 -77 13 -90 13 -150 -4 -53 -14 -74 -26 -117 -68 -63 -62 -92
-134 -101 -249 l-6 -80 -71 -32 c-39 -18 -115 -53 -169 -79 l-98 -45 -15 34
c-19 45 -18 55 5 55 27 0 54 29 48 52 -3 11 2 22 13 28 9 5 39 30 65 55 41 40
46 50 39 73 -14 50 1 151 29 189 4 6 5 33 1 61 -4 31 -2 57 6 71 9 18 8 31 -5
63 -13 33 -14 45 -3 74 15 43 3 68 -35 72 -17 2 -33 15 -46 35 -41 66 -113
120 -185 138 -38 9 -46 15 -46 35 0 13 -9 29 -20 36 -28 18 -26 56 3 60 18 2
23 10 25 41 3 34 1 37 -22 37 -21 0 -26 5 -26 25 0 22 -4 25 -40 25 -34 0 -41
-4 -46 -25z m66 -20 c0 -20 5 -25 25 -25 15 0 25 -6 25 -15 0 -8 -11 -17 -25
-21 -20 -5 -25 -13 -25 -36 0 -25 -4 -29 -22 -26 -17 2 -24 11 -26 31 -3 21
-8 27 -28 27 -33 0 -29 34 4 38 16 3 22 10 22 28 0 19 5 24 25 24 20 0 25 -5
25 -25z m25 -158 c10 -8 15 -19 11 -25 -8 -13 -83 -16 -110 -6 -19 7 -21 30
-3 37 25 11 84 7 102 -6z m137 -101 c57 -30 118 -96 133 -145 9 -30 -12 -71
-37 -71 -15 0 -17 5 -12 26 8 33 -23 93 -53 100 -32 8 -103 -49 -103 -82 0
-13 -6 -24 -13 -24 -22 0 -27 11 -16 32 8 15 4 28 -18 63 -28 44 -59 63 -88
51 -18 -7 -61 -95 -57 -118 2 -12 -3 -18 -17 -18 -14 0 -21 6 -21 19 0 26 -67
83 -93 79 -26 -4 -67 -75 -60 -104 6 -29 -15 -41 -32 -18 -43 56 17 159 125
214 44 24 83 29 195 27 100 -2 115 -5 167 -31z m-153 -91 c2 -11 12 -26 23
-33 17 -13 18 -16 4 -37 -12 -18 -13 -25 -3 -33 40 -31 92 -23 83 12 -4 15 3
29 23 49 38 35 56 34 75 -5 19 -38 20 -55 4 -62 -18 -7 20 -36 46 -36 20 0 31
16 50 73 3 9 10 17 16 17 13 0 13 -47 -1 -55 -6 -4 -7 -19 -4 -37 l7 -30 -53
7 c-30 4 -69 16 -87 26 -27 15 -44 18 -84 13 -31 -4 -64 -2 -89 6 -35 12 -46
11 -89 -4 -39 -14 -56 -15 -86 -7 -32 9 -45 7 -74 -8 -19 -10 -59 -21 -89 -24
-49 -6 -53 -5 -48 13 3 11 -4 31 -15 46 -19 23 -19 27 -5 41 13 14 16 12 30
-18 8 -19 17 -42 21 -51 7 -23 28 -23 57 1 19 15 21 22 12 33 -19 22 14 88 44
88 13 0 23 -6 23 -13 0 -7 9 -18 21 -25 15 -10 19 -20 15 -38 -6 -23 -4 -24
38 -24 51 0 62 10 44 39 -10 16 -9 23 4 38 8 10 19 28 23 41 9 30 58 28 64 -3z
m236 -195 c54 -13 82 -30 49 -30 -10 0 -59 7 -109 15 -115 19 -293 19 -419 0
-117 -18 -133 -18 -120 -6 5 6 43 17 84 25 88 18 432 15 515 -4z m-618 -50 c1
-27 10 -61 19 -75 11 -16 14 -36 11 -55 -7 -34 15 -46 56 -31 35 14 42 29 21
52 -17 19 -17 22 -2 47 28 46 44 50 73 18 17 -18 25 -37 23 -54 -3 -23 1 -27
25 -30 16 -2 39 4 53 12 20 14 22 19 12 36 -10 16 -9 23 7 39 11 11 26 27 33
36 18 21 27 19 57 -12 21 -22 25 -35 20 -60 -7 -37 13 -53 64 -53 30 0 55 20
33 28 -21 7 -13 39 14 56 33 22 52 18 78 -17 20 -28 20 -29 2 -42 -23 -17 -15
-41 18 -56 37 -17 57 -6 50 29 -4 18 1 40 14 62 14 23 20 50 18 78 -2 34 1 42
13 40 13 -3 16 -17 16 -68 0 -36 3 -70 8 -77 4 -6 1 -18 -7 -26 -8 -7 -16 -25
-18 -38 -2 -20 -9 -24 -43 -27 -22 -1 -51 4 -65 12 -53 32 -66 34 -112 24 -41
-10 -51 -8 -83 11 -45 26 -69 27 -107 0 -25 -18 -38 -20 -91 -15 -54 6 -66 4
-85 -12 -28 -24 -99 -37 -118 -21 -8 6 -14 19 -14 28 0 9 -7 24 -15 34 -10 14
-11 26 -3 49 8 22 7 40 -2 68 -13 39 -8 60 13 60 7 0 13 -19 14 -50z m313 11
c0 -5 -11 -23 -25 -39 -14 -17 -24 -40 -23 -53 2 -18 -3 -25 -19 -27 -18 -3
-23 2 -23 18 0 28 -50 90 -75 92 -11 1 9 4 45 8 104 10 120 11 120 1z m220 -6
c76 -7 137 -22 145 -35 3 -5 -1 -23 -10 -39 -8 -17 -15 -41 -15 -56 0 -26 -14
-32 -40 -15 -12 7 -12 12 -2 22 18 18 15 45 -10 78 -27 38 -59 38 -99 3 -22
-20 -29 -34 -26 -51 4 -19 1 -23 -17 -20 -16 2 -21 11 -23 36 -1 20 -10 42
-22 53 -31 29 -26 40 17 34 20 -2 66 -7 102 -10z m-436 -50 c-20 -35 -23 -48
-15 -64 15 -26 14 -28 -9 -34 -16 -4 -20 0 -20 22 0 15 -7 36 -15 47 -22 29
-18 44 18 59 61 27 69 21 41 -30z m-485 -64 c76 -39 166 -177 147 -226 -11
-29 -35 -15 -46 25 -11 41 -23 47 -64 31 -15 -6 -20 -18 -20 -47 -1 -27 -6
-40 -17 -42 -12 -2 -18 13 -27 73 -14 92 -46 168 -81 197 l-26 21 48 -6 c26
-4 65 -16 86 -26z m1572 5 c-27 -29 -57 -106 -66 -171 -10 -75 -14 -85 -37
-85 -18 0 -20 4 -14 39 6 42 -2 51 -49 51 -20 0 -25 -7 -31 -35 -5 -28 -11
-35 -30 -35 -18 0 -24 5 -24 23 0 30 41 115 74 154 33 40 119 83 165 83 l34 0
-22 -24z m196 -8 c18 -11 32 -25 30 -31 -1 -5 -22 -23 -45 -40 l-43 -31 -44
24 c-25 14 -45 28 -45 32 0 13 29 9 60 -7 39 -20 39 -4 0 19 -17 9 -28 22 -24
27 3 6 20 2 40 -11 50 -29 65 -25 22 6 -65 47 -26 56 49 12z m-1977 12 c0 -5
-4 -10 -8 -10 -5 0 -22 -11 -38 -25 -36 -31 -28 -32 26 -4 23 12 44 18 48 14
4 -4 1 -10 -6 -12 -20 -7 -69 -52 -57 -53 6 0 24 9 40 20 31 20 55 26 55 13 0
-13 -68 -53 -88 -53 -19 0 -101 65 -92 72 46 38 120 62 120 38z m84 -11 c23
-18 56 -67 56 -84 0 -15 -31 -2 -41 18 -6 12 -25 37 -42 55 -36 37 -17 45 27
11z m1742 -19 c-20 -22 -36 -45 -36 -50 0 -6 -7 -10 -15 -10 -8 0 -15 7 -15
15 0 23 60 85 82 85 18 0 16 -5 -16 -40z m394 -81 c0 -11 -6 -19 -14 -19 -17
0 -31 34 -21 50 10 16 35 -8 35 -31z m-2515 21 c8 -13 -13 -40 -31 -40 -17 0
-18 22 -2 38 15 15 25 15 33 2z m349 -33 c-33 -25 -49 -28 -49 -8 0 17 69 55
73 41 2 -6 -9 -21 -24 -33z m1806 26 c14 -9 26 -17 28 -18 1 -1 0 -9 -4 -18
-5 -14 -11 -13 -40 9 -52 40 -38 64 16 27z m310 -26 c11 -21 12 -29 3 -38 -10
-10 -17 -9 -33 6 -20 18 -26 45 -13 59 11 11 27 1 43 -27z m-2410 0 c0 -25
-17 -47 -37 -47 -16 0 -17 42 -1 58 19 19 38 14 38 -11z m1355 13 c112 -13
139 -20 127 -32 -5 -5 -26 -5 -53 2 -109 25 -451 22 -524 -6 -21 -8 -19 12 3
21 47 21 315 30 447 15z m978 -8 c41 -45 40 -118 -1 -110 -22 4 -67 90 -59
111 8 22 40 22 60 -1z m-2233 -7 c0 -25 -51 -115 -65 -115 -40 0 -42 55 -4
103 23 30 69 37 69 12z m277 7 c12 -7 39 -129 31 -137 -9 -9 -148 58 -148 70
0 18 71 70 100 74 3 0 10 -3 17 -7z m1704 -29 l42 -38 -69 -32 c-38 -17 -74
-32 -81 -32 -14 -1 -7 91 9 122 14 28 54 20 99 -20z m186 -22 c23 -34 31 -85
15 -95 -5 -3 -25 26 -45 65 -34 66 -35 70 -14 67 12 -2 32 -18 44 -37z m-2109
22 c-12 -24 -46 -101 -52 -117 -6 -18 -8 -18 -23 -4 -13 14 -14 22 -4 49 13
39 48 79 69 79 7 0 12 -3 10 -7z m718 -7 c8 -8 14 -22 14 -32 0 -9 9 -32 21
-51 12 -18 19 -40 16 -47 -8 -19 12 -25 51 -14 34 9 43 32 16 42 -30 11 -3
106 30 106 7 0 23 -14 35 -31 20 -27 22 -35 12 -57 -15 -31 1 -45 39 -36 41
10 53 24 35 44 -19 22 -19 26 6 61 26 37 52 37 79 -2 21 -28 21 -31 6 -48 -16
-17 -16 -20 -1 -35 18 -17 70 -22 80 -6 3 5 0 18 -7 30 -11 17 -9 24 19 52 27
26 34 29 47 19 9 -7 18 -29 22 -48 5 -26 2 -37 -12 -49 -19 -14 -19 -14 0 -29
31 -23 66 -19 66 8 0 12 7 31 16 42 8 11 19 37 25 58 11 42 33 46 36 6 1 -13
5 -37 9 -52 5 -24 1 -33 -32 -62 -55 -48 -69 -51 -114 -21 -33 21 -45 24 -93
19 -35 -4 -57 -2 -61 6 -10 16 -62 14 -97 -5 -21 -11 -43 -13 -74 -8 -36 5
-49 2 -71 -15 -36 -28 -49 -27 -105 12 -56 37 -62 48 -49 83 6 14 10 36 10 50
0 28 6 30 26 10z m1323 -15 c34 -37 54 -97 40 -123 -17 -31 -41 -17 -55 33 -8
26 -21 52 -29 59 -23 19 -18 60 8 60 5 0 21 -13 36 -29z m-1964 9 c4 -6 -5
-24 -19 -40 -24 -30 -28 -38 -40 -92 -7 -33 -31 -36 -46 -8 -30 55 73 191 105
140z m1052 4 c21 -6 21 -8 7 -29 -9 -13 -14 -34 -12 -47 2 -15 -2 -23 -11 -23
-10 0 -15 15 -16 53 -1 28 1 52 4 52 3 0 16 -3 28 -6z m-162 -28 c-13 -19 -14
-29 -5 -45 6 -12 9 -21 6 -21 -2 0 -11 -3 -20 -6 -13 -5 -15 -1 -10 23 4 20 1
33 -10 42 -25 21 -19 31 19 31 35 0 35 0 20 -24z m-158 -22 c-8 -27 -8 -40 1
-55 7 -10 10 -19 8 -19 -2 0 -11 -3 -20 -6 -11 -4 -16 0 -16 13 0 11 -7 28
-15 39 -29 38 -17 61 32 63 20 1 20 -1 10 -35z m493 21 c9 -11 8 -19 -4 -37
-9 -12 -16 -30 -16 -40 0 -11 -8 -18 -20 -18 -22 0 -27 15 -9 26 7 4 9 21 5
45 -5 34 -4 39 13 39 10 0 24 -7 31 -15z m-923 -42 c8 -35 12 -38 42 -36 29 1
32 -1 29 -25 -2 -21 -9 -28 -31 -30 -25 -3 -27 -6 -25 -45 3 -37 0 -42 -19
-45 -21 -3 -23 1 -23 37 0 40 -1 41 -36 41 -31 0 -35 3 -32 23 2 15 11 23 28
25 23 3 25 6 22 47 -4 40 -2 45 16 45 15 0 22 -10 29 -37z m1346 -3 c-5 -38
-4 -40 26 -46 17 -4 31 -10 31 -14 0 -25 -15 -40 -40 -40 -24 0 -29 -5 -37
-37 -13 -54 -37 -50 -43 7 -4 40 -8 45 -32 48 -22 3 -28 9 -28 28 0 21 5 24
35 24 19 0 35 4 35 9 0 27 21 61 39 61 17 0 18 -5 14 -40z m277 -11 c9 -21 10
-33 2 -41 -20 -20 -222 -107 -222 -95 0 7 5 29 11 50 9 33 18 42 87 77 42 21
84 39 93 40 9 0 22 -14 29 -31z m-1821 -19 c76 -38 79 -41 86 -80 4 -23 5 -43
3 -46 -9 -9 -223 96 -226 110 -5 24 17 56 39 56 11 0 55 -18 98 -40z m1850
-86 c7 -20 9 -40 5 -44 -5 -5 -49 -27 -97 -49 l-88 -41 -15 35 c-8 19 -14 36
-14 39 0 12 164 95 190 96 4 0 12 -16 19 -36z m-1885 -18 l96 -45 -17 -35 c-9
-20 -23 -36 -30 -36 -27 0 -182 81 -178 93 17 49 25 67 29 67 3 0 48 -20 100
-44z m318 -53 c5 -100 30 -168 81 -222 35 -36 119 -81 154 -81 34 0 52 -10 46
-26 -3 -8 -17 -14 -32 -14 -15 0 -31 -3 -35 -7 -11 -12 -88 -2 -120 14 -82 42
-196 183 -237 292 -33 89 -35 111 -11 111 16 0 22 -9 27 -40 7 -42 16 -46 64
-33 20 5 22 10 17 43 -6 40 -2 50 24 50 15 0 18 -13 22 -87z m1178 42 l0 -45
39 0 c39 0 40 1 43 38 2 25 8 37 18 37 25 0 16 -67 -19 -136 -61 -122 -69
-134 -138 -201 -56 -54 -80 -70 -127 -83 -42 -12 -60 -14 -70 -6 -7 6 -20 9
-29 5 -10 -3 -20 2 -26 15 -15 28 -17 27 43 40 97 22 172 88 205 181 7 19 15
72 18 118 5 71 8 82 24 82 16 0 19 -8 19 -45z m-2078 -69 c1 -41 -5 -79 -19
-116 -11 -30 -30 -87 -42 -126 -29 -96 -44 -108 -61 -50 -16 58 -9 94 44 231
24 61 47 124 51 140 7 30 7 30 16 6 5 -13 10 -51 11 -85z m1662 81 c15 -10 25
-24 23 -30 -5 -16 -38 -22 -46 -8 -22 34 -278 38 -329 5 -26 -17 -52 -13 -52
9 0 12 21 27 60 41 8 3 83 4 165 3 127 -2 155 -5 179 -20z m988 6 c24 -21 23
-40 -2 -48 -26 -8 -25 -17 5 -45 22 -21 29 -22 59 -13 31 10 37 8 60 -16 14
-15 26 -30 26 -33 0 -3 -14 -11 -31 -18 -22 -10 -33 -10 -42 -1 -15 15 -49 14
-72 -3 -16 -11 -17 -16 -6 -29 10 -13 9 -17 -8 -26 -11 -6 -24 -11 -30 -11
-18 0 -42 32 -36 49 7 23 -21 47 -66 55 -44 8 -89 -10 -89 -35 0 -10 -5 -21
-11 -24 -18 -11 32 -57 55 -51 20 5 56 -18 56 -36 0 -5 -16 -16 -35 -24 -31
-13 -38 -13 -57 0 -18 13 -24 13 -54 -2 -35 -16 -41 -26 -24 -37 17 -10 11
-21 -16 -34 -24 -11 -30 -9 -56 16 -24 22 -26 28 -13 36 21 11 19 20 -10 51
-19 21 -30 25 -50 20 -18 -4 -32 -1 -45 11 -28 25 -25 33 16 52 29 14 38 15
55 5 16 -10 28 -10 55 -2 34 12 43 27 24 46 -8 8 17 24 80 52 98 45 110 48
127 31 9 -9 19 -9 42 1 26 10 29 15 20 32 -6 11 -9 21 -7 22 10 9 44 25 52 26
5 0 18 -7 28 -17z m308 -22 c0 -7 23 -67 50 -132 52 -124 58 -156 38 -220 -13
-45 -22 -48 -40 -16 -23 43 -81 243 -85 297 -5 62 12 124 27 100 6 -8 10 -21
10 -29z m-2606 8 c5 -5 4 -14 -3 -23 -18 -21 44 -54 71 -37 26 16 29 15 125
-29 67 -31 84 -43 75 -52 -19 -19 -14 -27 25 -43 32 -13 38 -13 52 -1 14 13
22 13 60 -5 l44 -19 -24 -26 c-18 -19 -29 -23 -52 -18 -47 10 -103 -54 -61
-70 15 -6 14 -10 -6 -31 -26 -27 -41 -30 -71 -14 -16 8 -18 13 -8 25 14 17 14
16 -29 38 -29 15 -35 15 -53 2 -19 -13 -25 -13 -55 2 -19 8 -34 19 -34 22 0
17 40 41 57 36 23 -7 72 38 53 49 -6 4 -8 15 -5 25 4 13 -2 21 -26 29 -60 21
-146 -11 -134 -49 3 -9 -3 -25 -15 -35 -17 -15 -24 -16 -47 -6 -20 9 -23 15
-15 23 18 18 15 26 -18 43 -27 14 -33 14 -51 1 -16 -11 -28 -12 -50 -4 -35 12
-36 15 -3 49 23 24 29 26 60 16 30 -9 37 -8 59 13 30 28 31 37 5 45 -26 8 -25
30 2 49 22 15 53 13 72 -5z m1664 -66 l-3 -47 -171 -81 c-279 -131 -426 -200
-435 -203 -10 -4 -45 65 -38 72 7 7 632 304 642 305 4 1 7 -20 5 -46z m-809
-93 l223 -103 -33 -18 c-19 -10 -45 -18 -59 -18 -14 0 -113 39 -220 88 l-195
89 -6 39 c-12 67 -39 74 290 -77z m226 98 c-4 -18 -18 -58 -32 -90 l-25 -56
-36 15 c-65 27 -66 30 -13 133 9 16 41 27 84 29 27 1 28 -1 22 -31z m149 23
c24 -5 32 -15 47 -56 10 -27 18 -55 18 -61 1 -11 -67 -44 -88 -44 -11 0 -45
87 -54 138 -6 30 -5 32 21 31 15 -1 40 -4 56 -8z m676 -45 c10 -24 23 -47 29
-50 13 -9 14 -26 2 -26 -15 0 -51 55 -57 89 -9 45 4 38 26 -13z m430 17 c0
-26 0 -26 -20 -8 -16 14 -17 20 -8 27 22 13 28 9 28 -19z m-2420 3 c0 -8 -7
-16 -15 -20 -10 -4 -15 1 -15 14 0 11 7 20 15 20 8 0 15 -6 15 -14z m440 4 c0
-17 -37 -85 -53 -99 -11 -8 -17 -9 -22 -1 -3 5 1 13 9 16 8 3 23 26 32 50 15
40 34 59 34 34z m1524 -57 c27 -48 28 -65 1 -43 -12 10 -21 10 -42 1 -14 -6
-27 -10 -30 -8 -4 5 34 97 41 97 2 0 16 -21 30 -47z m-1477 -13 c12 -27 19
-50 17 -50 -3 0 -18 7 -33 15 -26 13 -30 13 -41 0 -7 -8 -16 -15 -21 -15 -10
0 42 100 52 100 3 0 15 -22 26 -50z m2147 3 c24 -49 66 -185 66 -217 0 -16 -3
-16 -29 3 -43 31 -70 95 -77 184 -8 92 4 100 40 30z m-1405 -33 c12 -30 21
-58 21 -62 0 -3 -13 -10 -28 -16 -25 -8 -48 -4 -70 13 -2 2 7 32 20 69 12 36
26 62 30 58 3 -4 16 -32 27 -62z m-1449 -90 c-11 -42 -73 -120 -85 -109 -15
16 45 206 79 248 16 20 20 -85 6 -139z m2428 73 c-2 -20 -8 -38 -14 -40 -15
-5 -25 60 -10 69 21 15 27 8 24 -29z m-1996 -13 c-4 -40 -7 -44 -21 -35 -6 3
-11 22 -11 41 0 28 3 35 18 32 13 -3 16 -12 14 -38z m1504 3 c-28 -50 -44 -65
-82 -73 -39 -9 -91 -3 -100 11 -7 12 184 104 194 94 2 -2 -4 -16 -12 -32z
m544 -14 c0 -31 -4 -48 -10 -44 -5 3 -10 26 -10 51 0 24 5 44 10 44 6 0 10
-23 10 -51z m-2110 -3 c0 -25 -4 -48 -10 -51 -6 -4 -10 13 -10 44 0 28 5 51
10 51 6 0 10 -20 10 -44z m659 -17 c80 -36 78 -47 -6 -48 -57 -1 -87 14 -112
59 -33 60 -40 60 118 -11z m1705 -26 c-28 -20 -34 -16 -34 25 0 31 5 41 23 49
20 9 22 7 25 -26 3 -25 -2 -39 -14 -48z m-2606 13 c3 -39 1 -41 -29 -26 -14 8
-19 21 -19 52 0 40 0 40 23 26 15 -10 23 -27 25 -52z m2522 35 c0 -17 -4 -33
-10 -36 -5 -3 -10 3 -10 14 0 11 -5 23 -10 26 -13 8 -3 25 16 25 9 0 14 -10
14 -29z m30 -19 c0 -28 -3 -33 -10 -22 -13 20 -13 73 0 65 6 -3 10 -23 10 -43z
m-2514 -18 c-3 -8 -10 -14 -16 -14 -14 0 -13 27 2 53 l13 22 3 -23 c2 -13 1
-30 -2 -38z m46 51 c7 -7 -14 -55 -24 -55 -5 0 -8 14 -8 30 0 27 17 40 32 25z
m2326 -47 c7 -7 12 -30 12 -52 0 -38 0 -39 -20 -21 -12 11 -20 31 -20 52 0 35
8 41 28 21z m-2218 -31 c0 -31 -14 -57 -32 -57 -11 0 -10 48 2 71 16 29 30 23
30 -14z m421 -61 l-21 -20 0 32 c0 18 8 45 18 60 l17 26 3 -38 c3 -29 -2 -44
-17 -60z m1361 77 c12 -10 18 -30 18 -56 l0 -40 -25 23 c-17 16 -25 34 -25 57
0 37 6 40 32 16z m518 -18 c0 -24 -6 -37 -19 -45 -32 -17 -41 -12 -41 23 0 25
6 37 23 45 34 16 37 15 37 -23z m495 -31 c-4 -37 -13 -88 -21 -114 -15 -51
-67 -116 -84 -105 -15 9 -12 101 5 142 16 37 91 143 101 143 4 0 3 -30 -1 -66z
m-2864 46 c21 -12 28 -80 8 -80 -29 0 -49 22 -49 55 0 37 9 42 41 25z m2428
-26 c12 -15 21 -32 21 -40 0 -7 16 -34 36 -59 26 -34 33 -50 25 -58 -14 -14
-25 -3 -62 59 l-27 48 -7 -40 c-3 -21 -7 -45 -8 -53 -3 -19 -77 45 -77 65 0 8
11 20 25 26 18 8 25 19 25 38 0 47 19 52 49 14z m-2879 -88 c33 -65 39 -130
16 -161 -13 -17 -15 -16 -40 22 -36 54 -56 123 -56 191 l0 55 25 -23 c14 -13
39 -51 55 -84z m398 67 c2 -22 11 -34 34 -45 l32 -15 -45 -43 -44 -43 -10 54
-11 54 -33 -62 c-32 -60 -51 -72 -51 -34 0 10 7 24 16 32 8 7 27 36 41 63 14
28 30 57 36 64 16 20 32 9 35 -25z m602 16 c0 -5 -4 -9 -10 -9 -5 0 -10 7 -10
16 0 8 5 12 10 9 6 -3 10 -10 10 -16z m984 -1 l50 -10 -30 -16 c-34 -18 -175
-23 -181 -7 -4 14 78 55 97 49 8 -3 37 -10 64 -16z m276 13 c0 -12 -20 -25
-27 -18 -7 7 6 27 18 27 5 0 9 -4 9 -9z m106 -57 c-10 -26 -26 -14 -26 20 0
40 23 55 28 19 2 -14 1 -31 -2 -39z m624 32 c20 -18 46 -38 56 -44 17 -10 18
-12 2 -29 -9 -10 -21 -28 -25 -41 -8 -21 -10 -21 -31 -6 -58 40 -102 134 -69
147 23 10 30 7 67 -27z m-2686 18 c35 -14 7 -80 -59 -136 -27 -23 -34 -22 -45
6 -5 13 -14 27 -20 31 -7 5 8 25 42 56 57 51 58 52 82 43z m594 -38 c2 -28 0
-37 -10 -34 -7 3 -14 22 -16 42 -2 28 0 37 10 34 7 -3 14 -22 16 -42z m492 23
c43 -20 44 -21 25 -35 -25 -19 -123 -15 -175 8 l-35 15 60 15 c80 20 74 20
125 -3z m1287 -74 c-3 -7 -19 -17 -36 -23 l-31 -11 0 38 c0 32 4 39 33 53 l32
15 3 -29 c2 -17 1 -36 -1 -43z m-2087 50 c26 -13 30 -21 30 -55 l0 -40 -35 17
c-31 15 -35 21 -35 55 0 43 0 43 40 23z m1961 -58 c-7 -7 -14 -1 -21 19 -9 24
-8 31 7 42 16 12 18 10 21 -19 2 -17 -1 -36 -7 -42z m216 -39 c3 -41 2 -49 -7
-35 -17 26 -30 21 -30 -12 0 -43 -15 -46 -39 -8 l-21 32 0 -67 c0 -39 -5 -70
-11 -74 -17 -10 -5 -120 21 -187 13 -32 48 -87 80 -125 51 -61 62 -83 108
-218 37 -106 52 -166 52 -202 0 -36 4 -54 14 -58 8 -3 45 20 87 56 41 34 75
56 77 50 11 -32 -18 -74 -127 -180 -86 -85 -122 -127 -137 -162 -19 -49 -28
-55 -53 -39 -12 8 -12 13 3 33 86 117 116 191 116 282 0 164 -108 341 -269
438 -49 30 -54 37 -56 71 -2 33 1 37 22 37 26 0 30 19 11 51 -11 17 -10 22 5
30 27 16 20 38 -19 61 l-35 21 25 26 c41 42 31 129 -18 170 -9 8 -16 17 -16
22 0 14 20 10 37 -6 32 -32 100 9 109 66 l7 41 30 -30 c24 -24 31 -41 34 -84z
m-2184 3 c46 -23 48 -23 67 -6 28 25 38 10 13 -18 -51 -55 -58 -118 -18 -166
l26 -30 -30 -17 c-44 -26 -53 -64 -15 -64 18 0 18 -14 -1 -30 -23 -19 -18 -39
11 -50 20 -8 24 -15 19 -31 -4 -13 -2 -25 5 -29 8 -5 -7 -20 -46 -45 -180
-114 -268 -245 -281 -420 -8 -98 13 -164 83 -260 42 -59 52 -80 42 -86 -24
-16 -33 -9 -52 37 -19 46 -86 121 -189 209 -58 50 -92 110 -78 134 6 9 26 -4
73 -48 78 -72 98 -77 98 -23 0 50 24 146 51 206 11 27 29 78 40 113 12 44 30
78 59 110 22 26 57 80 78 122 33 68 37 82 36 150 -1 42 -5 104 -9 139 l-7 63
-24 -38 -23 -38 -7 43 c-7 45 -17 52 -34 25 -9 -14 -10 -6 -6 36 4 41 12 61
33 83 l28 30 5 -39 c4 -34 10 -41 53 -62z m473 55 c47 -47 56 -82 28 -110 -18
-18 -17 -18 -38 -10 -20 8 -21 48 -1 64 19 16 5 43 -35 67 -33 19 -39 33 -14
33 9 0 36 -20 60 -44z m744 6 c0 -41 -32 -97 -55 -97 -40 0 -26 89 18 120 26
18 37 11 37 -23z m446 25 c-68 -43 -74 -57 -44 -99 9 -13 9 -20 -1 -32 -31
-38 -78 -2 -65 49 8 32 81 95 108 94 20 0 20 -1 2 -12z m-1531 -6 c3 -5 1 -12
-5 -16 -5 -3 -10 -15 -10 -26 0 -33 -25 -16 -28 19 -3 26 0 32 17 32 11 0 22
-4 26 -9z m784 -19 c27 -39 36 -79 21 -97 -7 -8 -16 -15 -21 -15 -15 0 -63
106 -56 124 10 24 33 19 56 -12z m-496 -13 c21 -16 24 -23 16 -37 -9 -14 -26
-17 -90 -17 l-79 0 0 27 c0 30 6 33 43 19 20 -8 29 -6 43 10 22 24 35 24 67
-2z m1308 5 c13 -12 22 -13 38 -5 29 16 31 14 31 -20 0 -30 -1 -31 -39 -24
-22 3 -56 2 -77 -4 -31 -9 -39 -8 -50 7 -12 15 -10 20 12 40 29 26 60 28 85 6z
m132 -78 l-6 -39 -19 22 c-11 14 -18 39 -18 64 l0 42 25 -25 c21 -21 24 -31
18 -64z m-1016 52 c35 -39 37 -73 7 -97 -29 -23 -52 -17 -78 21 -21 29 -20 57
1 80 22 24 45 23 70 -4z m283 15 c-1 -20 -18 -33 -35 -27 -17 7 -17 8 1 21 20
14 34 17 34 6z m184 -9 c22 -21 20 -56 -5 -88 -26 -33 -63 -34 -84 -2 -16 24
-13 43 13 84 17 26 54 29 76 6z m-1054 -22 c0 -29 -24 -72 -41 -72 -12 0 -12
56 1 81 16 29 40 24 40 -9z m1680 -10 c0 -32 -5 -41 -25 -50 -36 -17 -37 -16
-33 25 2 28 9 41 28 50 14 7 26 13 28 13 1 0 2 -17 2 -38z m629 11 c29 -25 32
-32 29 -73 -4 -45 -4 -45 -16 -17 -11 25 -15 27 -53 21 -34 -6 -45 -4 -56 11
-17 25 -17 50 3 69 23 24 56 19 93 -11z m-2975 1 c39 -39 0 -91 -59 -80 -34 7
-37 5 -48 -23 -15 -40 -31 -40 -23 0 3 17 6 40 6 50 0 20 65 69 92 69 9 0 24
-7 32 -16z m594 -42 c3 -37 1 -41 -15 -35 -32 11 -43 25 -43 53 0 34 7 41 33
31 17 -6 23 -18 25 -49z m2160 -32 c14 -45 25 -213 13 -185 -7 14 -10 16 -11
5 -1 -8 -6 -4 -11 10 -6 13 -8 34 -5 46 3 12 -3 51 -14 86 -11 35 -20 79 -20
98 l0 35 19 -30 c10 -17 23 -46 29 -65z m-1758 60 c34 -19 34 -19 8 -20 -14 0
-29 -6 -31 -12 -7 -17 -27 9 -27 35 0 21 6 21 50 -3z m945 -15 c0 -36 -9 -46
-19 -20 -3 8 -15 15 -26 15 -27 0 -26 14 3 28 36 17 42 14 42 -23z m739 -32
c29 -34 46 -74 46 -105 l0 -21 -23 21 c-32 30 -37 28 -37 -14 0 -80 -29 2 -54
154 l-6 33 24 -19 c14 -10 36 -32 50 -49z m-2518 -37 c-9 -30 -16 -74 -17 -98
-1 -23 -4 -54 -9 -68 l-7 -25 -8 29 c-12 45 2 161 26 213 19 40 23 44 26 25 3
-12 -3 -46 -11 -76z m1326 78 c17 -9 40 -27 53 -41 17 -21 25 -24 40 -16 15 9
22 6 38 -13 14 -18 28 -24 58 -24 21 0 39 -5 39 -10 0 -7 -60 -8 -172 -4 -95
3 -215 2 -265 -3 -73 -7 -93 -6 -93 4 0 8 13 12 35 11 22 -1 43 6 56 18 11 10
31 18 44 16 15 -2 30 6 45 25 23 30 56 52 78 53 7 0 27 -7 44 -16z m-1218 -26
c-11 -58 -36 -153 -45 -168 -6 -10 -9 -1 -9 30 l-1 45 -25 -29 c-32 -36 -41
-27 -25 25 12 38 83 129 102 129 5 0 6 -15 3 -32z m880 10 c18 -25 22 -88 6
-88 -10 0 -50 81 -50 101 0 17 29 9 44 -13z m646 12 c0 -20 -27 -75 -43 -89
-14 -11 -18 -11 -23 3 -8 21 13 73 35 86 21 12 31 12 31 0z m-690 -62 c19 -45
20 -52 6 -66 -13 -14 -18 -9 -41 43 -14 33 -23 65 -21 72 9 24 34 2 56 -49z
m725 -16 c-32 -60 -48 -71 -53 -35 -6 42 51 124 71 104 8 -8 3 -28 -18 -69z
m368 62 c18 -9 42 -28 54 -41 l23 -24 39 21 40 20 11 -21 c16 -28 6 -49 -23
-49 -27 0 -43 -15 -49 -45 -4 -25 -34 -31 -56 -12 -9 8 -28 17 -42 19 -17 2
-26 10 -28 25 -7 51 -75 63 -92 17 -8 -20 -14 -22 -44 -17 -29 4 -37 1 -51
-20 -18 -28 -10 -58 21 -75 13 -7 14 -13 5 -31 -25 -46 20 -95 64 -71 20 10
26 9 45 -10 13 -13 29 -20 41 -17 21 6 44 -17 34 -33 -8 -13 -31 -13 -54 2
-15 9 -28 9 -60 -2 -49 -16 -83 -4 -130 44 -28 29 -30 34 -16 46 17 14 20 61
5 76 -15 15 50 142 72 143 10 1 25 13 35 27 29 45 98 57 156 28z m217 -52 c11
-42 -2 -75 -42 -105 -32 -24 -58 -16 -58 18 0 21 5 25 30 25 41 0 56 30 36 72
-9 17 -16 38 -16 46 0 27 39 -17 50 -56z m-1890 50 c0 -5 -7 -17 -15 -28 -18
-24 -19 -68 -2 -82 6 -5 23 -12 37 -14 29 -4 40 -42 15 -52 -21 -8 -71 18 -85
43 -16 30 -12 73 10 109 18 30 40 43 40 24z m280 -2 c11 -6 31 -22 44 -35 14
-14 34 -25 45 -25 15 0 28 -17 52 -66 28 -59 30 -68 15 -76 -20 -11 -21 -56
-1 -79 15 -15 13 -19 -24 -48 -57 -46 -95 -57 -123 -37 -28 20 -52 20 -68 1
-14 -17 -29 -19 -50 -5 -12 7 -12 12 4 29 11 12 30 21 44 21 14 0 33 7 43 16
13 12 22 13 36 5 29 -15 67 8 71 43 2 16 -1 33 -6 38 -7 7 -1 18 16 33 23 20
25 26 16 51 -9 26 -15 29 -50 28 -32 0 -43 4 -50 20 -18 41 -94 29 -94 -15 0
-12 -7 -19 -19 -19 -10 0 -30 -9 -44 -20 -34 -27 -55 -25 -69 5 -7 16 -22 27
-44 31 -37 7 -45 19 -33 51 8 22 9 22 53 6 l46 -17 27 26 c47 45 119 61 163
38z m2052 -21 c36 -25 48 -29 80 -24 31 6 38 4 38 -9 0 -12 -10 -16 -34 -16
-19 0 -47 -5 -63 -11 -20 -7 -29 -7 -31 1 -2 6 -16 -15 -31 -47 l-28 -58 -6
80 c-5 65 -3 83 10 97 9 10 18 18 20 18 2 0 22 -14 45 -31z m-2757 -53 c-3
-16 -5 -49 -6 -75 l-1 -46 -28 60 c-16 33 -29 54 -30 47 0 -8 -7 -11 -17 -9
-10 3 -40 8 -66 12 -59 8 -60 32 -1 27 32 -3 47 3 79 28 l39 31 18 -23 c12
-15 17 -33 13 -52z m943 24 c24 -35 26 -80 5 -87 -7 -3 -24 19 -38 47 -40 80
-15 110 33 40z m867 31 c8 -14 -47 -121 -62 -121 -22 0 -25 26 -8 62 30 58 56
80 70 59z m715 -110 c16 -41 30 -91 30 -113 0 -41 17 -83 56 -134 18 -24 24
-50 29 -110 l6 -79 -34 38 c-52 57 -125 235 -131 322 -3 39 -8 95 -11 125 -6
49 -5 53 9 40 8 -8 29 -48 46 -89z m-1645 65 c20 -30 30 -91 17 -100 -13 -8
-50 51 -58 93 -5 24 -3 31 10 31 8 0 23 -11 31 -24z m985 8 c0 -17 -26 -68
-49 -96 -38 -47 -42 6 -6 69 26 43 55 57 55 27z m-1655 -41 c-3 -27 -8 -84
-11 -127 -3 -44 -11 -89 -19 -100 -7 -12 -22 -50 -34 -86 -12 -36 -38 -87 -59
-115 l-37 -50 -3 73 c-3 67 -1 76 26 110 33 42 52 92 52 135 0 28 38 146 60
188 20 36 32 22 25 -28z m2234 0 c27 -55 34 -96 22 -139 -9 -32 -7 -41 11 -66
19 -27 58 -135 58 -161 0 -17 -48 32 -79 82 -35 55 -64 140 -59 173 3 21 5 20
26 -16 13 -21 25 -36 28 -33 4 3 -3 18 -14 34 -19 26 -27 72 -23 136 1 36 7
34 30 -10z m-1749 12 c10 -12 10 -21 2 -40 -7 -14 -16 -25 -22 -25 -6 0 -15
11 -22 25 -8 19 -8 28 2 40 7 8 16 15 20 15 4 0 13 -7 20 -15z m-422 -60 c-3
-31 -14 -67 -29 -91 l-24 -39 -3 55 c-3 43 2 65 19 97 13 23 27 39 32 36 5 -3
7 -29 5 -58z m1772 46 c0 -11 -8 -27 -17 -37 -16 -16 -18 -15 -26 4 -13 28 -2
52 23 52 13 0 20 -7 20 -19z m-383 -26 c14 -9 31 -14 39 -11 7 3 17 -1 21 -8
5 -8 17 -15 27 -17 30 -6 29 -23 -2 -46 -27 -20 -34 -21 -148 -11 -110 9 -358
6 -557 -7 -72 -5 -85 -4 -105 14 -27 24 -20 51 14 51 13 0 24 4 24 8 0 12 88
35 165 43 39 4 166 6 284 4 175 -4 218 -7 238 -20z m1288 0 c54 -26 142 -113
151 -149 5 -22 2 -40 -14 -67 -36 -62 -70 -165 -83 -247 l-12 -79 -51 35 c-47
32 -55 34 -105 28 -52 -6 -53 -6 -48 16 24 98 15 250 -23 397 -17 66 -17 72
-2 81 26 16 142 6 187 -15z m-3032 -4 c4 -4 0 -41 -10 -82 -14 -56 -18 -115
-18 -244 l0 -170 -61 0 c-51 0 -66 -4 -97 -27 -19 -16 -38 -28 -40 -28 -2 0
-7 24 -10 53 -8 64 -39 161 -78 243 -16 34 -29 68 -29 76 0 28 60 107 100 134
63 42 138 65 190 59 24 -3 48 -9 53 -14z m875 0 c24 -15 10 -46 -22 -49 -40
-5 -54 12 -31 38 20 22 33 24 53 11z m1153 -12 c24 -24 14 -43 -21 -37 -31 4
-50 35 -30 48 21 14 27 13 51 -11z m678 -48 c6 -19 14 -73 17 -120 l5 -86 -25
30 c-38 44 -50 92 -41 170 6 55 9 65 20 54 7 -8 17 -29 24 -48z m-1988 18 c7
-14 6 -20 -3 -24 -33 -11 -51 -9 -62 8 -9 15 -7 21 7 32 22 16 44 10 58 -16z
m2134 -97 c24 -135 16 -348 -14 -366 -3 -2 -7 42 -7 98 -1 81 -7 117 -28 181
-29 84 -29 116 1 185 15 35 15 35 24 11 5 -13 16 -62 24 -109z m-657 92 c4
-26 -22 -38 -50 -23 -19 10 -19 11 -2 30 22 24 48 21 52 -7z m-2145 -31 c22
-63 22 -78 -9 -158 -21 -59 -25 -84 -25 -183 0 -67 -4 -111 -9 -106 -17 17
-32 159 -27 249 6 93 35 245 47 245 3 0 14 -21 23 -47z m136 -48 c1 -43 -26
-112 -52 -133 -14 -12 -16 -10 -12 20 2 18 6 58 9 89 2 31 12 72 22 90 l18 34
7 -30 c4 -16 7 -48 8 -70z m599 68 c4 -25 -22 -37 -38 -17 -10 11 -10 17 0 29
17 20 34 14 38 -12z m1320 3 c2 -10 -1 -23 -7 -29 -16 -16 -44 14 -35 37 8 22
38 17 42 -8z m-1473 -16 c10 -11 26 -22 36 -25 18 -6 19 -15 3 -92 -8 -41 -34
-25 -64 40 -17 34 -30 70 -30 80 0 23 32 22 55 -3z m1645 8 c0 -21 -46 -112
-63 -126 -24 -20 -36 -7 -35 41 0 34 6 47 32 69 33 29 66 36 66 16z m-1720
-21 c0 -7 14 -39 30 -71 17 -32 30 -60 30 -62 0 -2 -9 -4 -20 -4 -32 0 -93
136 -68 151 14 9 28 2 28 -14z m1770 1 c0 -25 -29 -92 -52 -121 -8 -11 -20
-16 -30 -12 -14 6 -13 13 11 58 15 29 30 62 33 75 8 29 38 29 38 0z m-436 6
c20 -8 21 -43 1 -50 -39 -15 7 -133 65 -164 30 -16 24 -30 -12 -30 -42 0 -93
31 -119 72 -29 47 -22 123 15 155 30 26 29 25 50 17z m512 -8 c15 -11 16 -17
7 -27 -18 -18 -63 -3 -63 21 0 24 27 27 56 6z m-2045 -74 c-17 -60 -121 -212
-121 -175 0 56 121 276 128 233 2 -10 -2 -36 -7 -58z m143 61 c8 -19 -11 -34
-38 -31 -28 4 -30 23 -4 36 32 15 35 14 42 -5z m520 -14 c59 -70 7 -188 -94
-210 -60 -14 -65 -3 -19 38 63 57 91 132 54 147 -15 5 -21 37 -8 49 15 15 43
5 67 -24z m-170 -1 c16 -26 -16 -57 -38 -38 -9 7 -16 23 -16 37 0 19 4 24 21
21 12 -2 27 -11 33 -20z m1206 -2 c0 -28 -24 -51 -45 -42 -20 7 -19 43 3 55
28 17 42 13 42 -13z m-1305 3 c13 -20 -4 -59 -26 -59 -27 0 -35 27 -14 50 20
22 31 25 40 9z m1013 -5 c12 -3 22 -14 22 -24 0 -16 -19 -17 -257 -16 -142 0
-304 -3 -360 -7 -99 -8 -103 -8 -103 12 0 11 5 23 11 27 32 19 622 27 687 8z
m377 -4 c22 -25 13 -52 -17 -48 -23 3 -34 28 -24 54 7 19 20 18 41 -6z m628
-67 c40 -105 50 -175 43 -290 -7 -113 4 -162 44 -183 21 -11 21 -12 -17 -45
l-38 -33 -6 87 c-4 60 -13 101 -29 136 -21 45 -24 68 -28 223 -2 94 -2 172 0
172 3 0 16 -30 31 -67z m-2684 -331 c-25 -55 -43 -155 -34 -199 7 -40 3 -40
-41 -7 -39 31 -42 40 -13 49 37 12 48 60 41 171 -8 119 -3 166 35 288 l28 91
3 -174 c2 -160 1 -178 -19 -219z m2295 367 c35 -27 33 -39 -6 -39 -48 0 -63
12 -49 39 14 26 22 26 55 0z m-1855 -11 c11 -29 5 -35 -41 -43 -47 -9 -52 12
-12 44 34 27 43 26 53 -1z m1155 -17 l99 -6 14 -40 c32 -94 130 -139 218 -101
27 12 33 11 58 -10 42 -35 112 -42 161 -15 51 26 56 26 114 -3 111 -56 210
-167 256 -286 41 -105 2 -267 -87 -361 -68 -72 -188 -143 -282 -168 -23 -6
-54 -24 -69 -40 -40 -41 -108 -51 -149 -21 -42 32 -90 35 -202 12 -265 -55
-535 -57 -774 -6 -90 19 -158 15 -198 -14 -40 -28 -105 -20 -150 19 -18 16
-52 33 -75 39 -62 17 -144 57 -214 106 -88 61 -150 171 -169 294 -20 138 93
315 256 400 l81 42 51 -22 c64 -28 118 -23 157 15 l27 26 52 -17 c44 -14 59
-15 92 -5 49 15 105 69 114 111 4 17 12 33 19 36 45 17 419 27 600 15z m265
-45 c19 -14 47 -28 63 -31 31 -7 36 -37 7 -43 -16 -3 -109 73 -109 89 0 13 2
12 39 -15z m395 3 c36 -28 33 -43 -6 -35 -39 8 -53 20 -45 40 8 21 19 20 51
-5z m-1780 -5 c9 -22 9 -21 -30 -34 -52 -18 -67 2 -23 29 41 25 45 26 53 5z
m333 -40 c-46 -45 -69 -52 -75 -23 -2 9 19 24 55 41 32 14 60 26 63 27 3 0
-16 -20 -43 -45z m1357 30 c25 -10 19 -57 -10 -85 -21 -19 -36 -24 -81 -24
-48 0 -58 4 -79 29 -32 36 -29 71 6 71 23 0 25 -4 23 -37 -2 -35 0 -38 31 -44
46 -8 80 10 66 36 -13 24 -13 26 6 44 18 18 17 18 38 10z m-1605 -21 c6 -12 6
-24 -1 -37 -19 -35 38 -60 83 -35 16 8 18 17 14 43 -8 39 14 55 40 30 23 -23
18 -43 -17 -76 -29 -27 -37 -30 -82 -25 -40 3 -55 11 -78 36 -32 36 -34 44
-12 65 20 21 41 20 53 -1z m1535 -19 c9 -24 7 -31 -10 -38 -25 -10 -46 12 -33
35 12 23 35 25 43 3z m-1476 -6 c20 -20 14 -38 -13 -38 -18 0 -25 5 -25 18 0
32 17 41 38 20z m1681 -28 c188 -95 309 -281 299 -464 -3 -59 -10 -86 -41
-148 -39 -79 -93 -138 -127 -138 -28 0 -26 5 20 60 83 100 120 235 93 340 -30
118 -147 254 -276 320 -66 35 -86 60 -47 60 11 0 47 -13 79 -30z m-1822 5 c1
-5 -32 -28 -75 -50 -142 -73 -246 -202 -275 -340 -20 -98 20 -233 98 -325 37
-44 37 -45 14 -48 -31 -5 -77 49 -126 146 -33 67 -37 80 -35 150 3 152 69 281
194 382 96 77 194 118 205 85z m2138 -136 c26 -33 54 -81 61 -106 17 -56 18
-152 2 -190 -11 -28 -11 -27 -19 23 -5 28 -29 106 -54 172 -39 106 -54 162
-41 162 1 0 24 -27 51 -61z m-2519 -30 c-13 -41 -35 -104 -50 -142 -14 -37
-26 -87 -26 -112 0 -54 -14 -66 -29 -23 -21 60 -3 187 34 245 26 40 87 114 91
110 2 -2 -7 -37 -20 -78z m2811 -51 c39 -18 73 -74 73 -117 -1 -67 -34 -116
-172 -254 -93 -93 -149 -141 -188 -160 -32 -16 -56 -23 -58 -17 -7 20 48 98
105 150 32 29 101 81 153 116 126 83 150 126 116 209 -14 32 -61 73 -72 63 -2
-3 0 -16 6 -29 16 -34 -2 -77 -35 -85 -89 -22 -131 78 -52 127 35 22 75 21
124 -3z m-3007 -27 c36 -26 36 -89 -1 -110 -57 -32 -115 18 -92 80 14 36 -1
39 -40 9 -26 -21 -47 -73 -47 -119 0 -29 65 -93 145 -141 108 -66 276 -243
251 -267 -25 -25 -362 277 -399 359 -10 20 -17 57 -17 82 0 103 118 166 200
107z m3030 -71 c13 -49 2 -76 -49 -123 -43 -39 -67 -48 -57 -21 3 9 9 33 12
54 4 22 17 49 30 61 16 15 24 34 24 57 0 29 2 33 15 22 8 -7 19 -29 25 -50z
m-3117 -54 c20 -17 53 -126 38 -126 -18 0 -83 55 -96 80 -19 37 -19 62 1 108
l17 37 8 -40 c5 -22 19 -48 32 -59z m3017 -377 c-19 -16 -53 -34 -75 -40 -22
-6 -61 -22 -87 -35 -58 -30 -73 -30 -92 -2 -15 21 -14 23 37 51 67 38 128 55
197 56 l55 0 -35 -30z m-2795 -34 c39 -21 72 -40 74 -42 3 -2 -4 -12 -15 -22
-19 -19 -21 -18 -119 20 -55 22 -113 51 -130 65 l-30 25 75 -4 c65 -3 86 -9
145 -42z m2474 -16 c42 -25 63 -49 101 -114 50 -85 50 -168 -1 -191 -63 -30
-162 -64 -183 -64 -23 0 -24 4 -27 79 -4 69 -8 85 -34 123 -17 24 -54 56 -82
73 -29 17 -52 32 -53 35 0 3 33 21 73 42 87 44 153 50 206 17z m-2164 -19 c33
-16 65 -30 71 -30 6 0 17 -7 24 -15 10 -11 6 -16 -22 -28 -96 -40 -162 -173
-135 -269 7 -26 5 -28 -21 -28 -15 0 -46 9 -67 20 -22 11 -57 23 -78 27 -49 7
-87 51 -87 99 0 82 95 210 176 239 56 20 72 18 139 -15z m2550 -10 c32 -11 65
-20 74 -20 9 0 36 -10 61 -22 l45 -21 -35 -9 c-35 -10 -48 -9 -169 12 -53 9
-78 8 -143 -6 -74 -16 -80 -16 -96 -1 -15 16 -15 18 3 32 34 25 118 54 161 54
22 1 67 -8 99 -19z m-2898 -30 c47 -22 61 -33 57 -44 -7 -19 -23 -20 -129 -4
-69 10 -94 9 -166 -5 -92 -19 -145 -22 -153 -9 -6 11 65 52 90 52 11 0 48 11
84 25 79 29 129 26 217 -15z m2274 -46 c63 -32 109 -116 109 -196 0 -74 -92
-139 -155 -110 -33 15 -43 57 -20 82 22 24 43 25 74 3 23 -15 25 -15 38 3 10
12 13 34 10 62 -8 75 -94 142 -182 142 -52 0 -53 14 -2 29 37 11 90 5 128 -15z
m-1706 -7 c17 -10 11 -12 -38 -18 -103 -12 -187 -96 -173 -173 8 -44 29 -62
46 -41 21 25 69 19 82 -11 14 -31 3 -53 -37 -73 -25 -12 -33 -11 -70 7 -76 37
-95 118 -49 210 50 101 156 145 239 99z m2407 -24 c48 -14 85 -30 82 -34 -9
-15 -90 -10 -155 10 -35 11 -88 23 -117 27 -58 7 -60 13 -10 23 47 11 100 3
200 -26z m-3029 -2 c4 -4 -16 -11 -45 -15 -29 -3 -82 -15 -118 -26 -68 -21
-145 -26 -154 -11 -5 7 109 49 179 65 28 7 128 -3 138 -13z m1956 5 c22 -12
20 -14 -37 -20 -94 -11 -152 -71 -152 -158 0 -58 51 -105 63 -60 11 43 87 25
87 -20 0 -61 -69 -76 -125 -27 -45 40 -59 89 -44 158 23 107 128 171 208 127z
m-989 -14 c63 -31 105 -142 80 -216 -13 -42 -72 -96 -103 -96 -51 0 -87 56
-55 88 19 19 65 14 81 -8 32 -46 64 5 53 86 -11 84 -56 124 -151 134 -55 6
-58 8 -35 18 37 16 91 14 130 -6z m1268 9 c25 -16 -159 -56 -303 -66 -134 -9
-87 11 98 41 83 14 154 28 156 30 7 7 35 4 49 -5z m675 -30 c27 -6 76 -26 110
-44 l62 -32 -62 -3 c-52 -2 -74 2 -132 28 -40 17 -87 30 -110 30 -29 0 -43 5
-50 19 -6 10 -8 20 -6 23 6 6 129 -8 188 -21z m-2209 5 c45 -8 113 -19 151
-26 39 -6 77 -16 85 -21 23 -17 -160 -2 -270 21 -161 34 -134 55 34 26z m460
-6 c127 -16 343 -14 476 4 63 9 118 16 122 16 4 0 -4 -16 -17 -36 -54 -79 -53
-179 1 -237 29 -31 32 -47 4 -22 -19 17 -25 14 -20 -10 1 -5 -4 -4 -11 3 -18
17 -32 15 -25 -3 6 -17 -9 -21 -19 -5 -3 6 -11 10 -17 10 -6 0 -5 -7 3 -17 13
-17 13 -17 -13 0 -35 22 -44 22 -27 0 13 -17 13 -17 -7 0 -11 9 -23 17 -27 17
-3 0 -4 -8 -1 -17 8 -25 -25 14 -49 57 -10 18 -20 30 -23 27 -3 -3 -6 -39 -6
-79 1 -77 15 -122 53 -173 22 -29 22 -29 -13 4 -20 18 -41 30 -46 27 -6 -3
-14 -1 -17 5 -4 5 -13 8 -20 5 -14 -5 -55 65 -55 95 0 8 -11 -11 -23 -41 -13
-30 -29 -54 -35 -52 -7 1 -24 -10 -37 -25 -15 -17 -23 -21 -19 -10 8 21 -14
23 -22 2 -4 -9 -16 -21 -27 -27 -21 -11 -21 -11 -4 13 33 45 50 94 55 160 5
75 -8 97 -32 51 -18 -34 -54 -68 -43 -40 4 12 2 15 -9 11 -7 -3 -14 -9 -14
-13 0 -4 -7 -11 -16 -14 -14 -5 -15 -4 -4 9 16 20 6 19 -28 -2 -17 -10 -22
-11 -14 -3 21 24 13 31 -15 13 -26 -17 -27 -17 -14 0 15 19 9 22 -19 7 -16 -8
-18 -8 -14 5 7 17 -11 21 -21 5 -3 -5 -11 -10 -17 -10 -5 0 3 15 20 34 51 59
53 138 6 225 -29 52 -29 54 -6 47 9 -3 57 -10 106 -16z m-1086 -7 c-2 -14 -17
-20 -58 -25 -30 -3 -83 -18 -116 -32 -57 -23 -194 -47 -194 -33 0 10 99 58
154 74 43 13 131 27 199 32 13 1 17 -5 15 -16z m2232 7 c21 -13 11 -18 -50
-25 l-55 -6 24 20 c25 22 57 27 81 11z m-1755 -12 c49 -22 24 -35 -44 -22 -25
5 -29 9 -20 20 14 17 30 18 64 2z m1597 -38 c-35 -29 -130 -62 -198 -67 -82
-7 -154 4 -154 23 0 20 5 21 164 38 76 8 141 17 144 20 3 3 19 6 36 6 l31 -1
-23 -19z m198 6 c0 -15 -151 -56 -206 -56 l-29 0 36 24 c31 21 88 35 187 45 6
0 12 -5 12 -13z m-1560 -16 c52 -6 117 -11 144 -12 33 -2 52 -8 60 -20 5 -9 8
-20 4 -23 -3 -3 -46 -9 -95 -12 -75 -5 -100 -2 -154 16 -35 11 -77 33 -94 47
l-30 25 35 -6 c19 -3 78 -10 130 -15z m2075 -4 c28 -13 72 -40 100 -60 65 -47
44 -47 -107 0 -106 34 -118 40 -118 61 0 20 5 23 38 23 20 0 60 -11 87 -24z
m-2222 -23 c22 -13 37 -26 34 -29 -4 -5 -131 20 -189 38 -64 19 -44 30 40 23
57 -5 87 -13 115 -32z m-585 6 c-2 -15 -21 -26 -73 -45 -111 -40 -195 -60
-195 -46 0 9 105 77 150 96 19 8 54 15 78 16 38 0 43 -2 40 -21z m2312 -22 c0
-33 -7 -37 -40 -24 -22 8 -38 8 -63 -1 -23 -8 -42 -9 -58 -3 -28 10 -24 12 61
35 83 22 100 20 100 -7z m-1880 4 c19 -6 55 -15 80 -21 l45 -12 -26 -14 c-21
-10 -33 -11 -58 -1 -23 8 -39 9 -60 0 -32 -12 -41 -3 -41 38 0 21 10 23 60 10z
m1522 -79 c62 -37 259 -92 329 -92 20 0 42 -7 49 -15 15 -18 9 -19 -115 -5
-106 12 -318 66 -324 81 -16 49 -107 68 -134 29 -17 -24 -27 -16 -27 22 l0 29
82 -7 c68 -6 91 -13 140 -42z m170 32 c41 -14 46 -19 50 -50 2 -19 3 -34 2
-34 -2 0 -32 7 -69 15 -73 17 -177 64 -169 77 9 14 138 9 186 -8z m-1389 -3
c15 -5 11 -10 -23 -30 -38 -21 -160 -61 -187 -61 -8 0 -13 13 -13 30 0 27 6
34 43 50 43 20 143 26 180 11z m227 -4 c0 -7 -6 -21 -13 -31 -12 -16 -14 -16
-26 -2 -8 10 -29 16 -51 16 -31 0 -43 -6 -63 -32 -19 -24 -42 -36 -103 -55
-71 -21 -309 -63 -359 -63 -17 0 -17 2 -5 14 8 7 59 21 114 30 114 19 215 52
283 92 62 37 223 59 223 31z m1430 -92 c11 -13 8 -15 -20 -15 -28 0 -31 2 -20
15 7 8 16 15 20 15 4 0 13 -7 20 -15z m-2065 -15 c4 -6 -5 -10 -20 -10 -15 0
-24 4 -20 10 3 6 12 10 20 10 8 0 17 -4 20 -10z m1685 -14 c47 -14 104 -28
128 -32 31 -5 49 -15 67 -38 13 -17 22 -32 20 -34 -8 -8 -166 43 -242 78 -122
57 -112 66 27 26z m-1225 4 c-16 -25 -187 -95 -292 -118 -38 -9 -42 -8 -34 7
18 33 52 61 74 61 12 0 67 13 122 30 107 31 140 36 130 20z m-40 -65 c-48 -41
-169 -111 -208 -121 l-29 -7 15 30 c13 24 34 36 114 67 54 20 107 43 117 51
37 28 31 14 -9 -20z m1353 -36 c31 -9 48 -21 58 -42 9 -16 13 -31 10 -34 -7
-8 -142 62 -190 99 -65 50 -65 51 9 20 39 -17 89 -36 113 -43z m-924 -71 c-45
-80 -160 -102 -152 -30 3 26 5 27 70 27 36 0 70 3 74 8 11 11 16 8 8 -5z m396
0 c73 9 85 7 88 -16 4 -29 -14 -52 -42 -52 -28 0 -82 34 -96 60 -11 20 -10 21
12 14 12 -4 30 -7 38 -6z"/>
<path d="M2476 4431 c-11 -18 6 -42 28 -39 29 4 29 42 -1 46 -11 2 -24 -1 -27
-7z m34 -16 c0 -8 -4 -15 -10 -15 -5 0 -10 7 -10 15 0 8 5 15 10 15 6 0 10 -7
10 -15z"/>
<path d="M2280 4404 c-11 -12 -11 -18 2 -30 16 -16 48 -9 48 10 0 13 -20 36
-31 36 -4 0 -12 -7 -19 -16z m30 -14 c0 -5 -4 -10 -10 -10 -5 0 -10 5 -10 10
0 6 5 10 10 10 6 0 10 -4 10 -10z"/>
<path d="M2674 4406 c-9 -24 4 -48 23 -44 12 2 18 12 18 28 0 29 -32 41 -41
16z m22 -23 c-10 -10 -19 5 -10 18 6 11 8 11 12 0 2 -7 1 -15 -2 -18z"/>
<path d="M2476 4183 c-4 -9 0 -23 9 -32 13 -14 17 -14 31 1 9 9 14 24 11 32
-8 21 -43 20 -51 -1z m36 -8 c0 -5 -5 -11 -11 -13 -6 -2 -11 4 -11 13 0 9 5
15 11 13 6 -2 11 -8 11 -13z"/>
<path d="M2676 4163 c-4 -9 0 -23 9 -32 13 -14 17 -14 32 1 13 14 14 20 3 32
-16 21 -36 20 -44 -1z m34 -14 c0 -5 -4 -9 -10 -9 -5 0 -10 7 -10 16 0 8 5 12
10 9 6 -3 10 -10 10 -16z"/>
<path d="M2273 4154 c-3 -8 1 -22 9 -30 13 -14 17 -14 32 1 13 13 14 20 5 31
-15 19 -38 18 -46 -2z m34 -20 c-9 -9 -28 6 -21 18 4 6 10 6 17 -1 6 -6 8 -13
4 -17z"/>
<path d="M2133 4134 c-8 -21 13 -42 28 -27 13 13 5 43 -11 43 -6 0 -13 -7 -17
-16z"/>
<path d="M2833 4134 c-8 -21 13 -42 28 -27 13 13 5 43 -11 43 -6 0 -13 -7 -17
-16z"/>
<path d="M2483 3953 c-7 -2 -13 -10 -13 -18 0 -19 25 -36 44 -29 18 7 21 29 6
39 -5 3 -7 0 -4 -8 6 -17 -22 -31 -32 -16 -3 5 0 16 6 24 13 16 12 16 -7 8z"/>
<path d="M2317 3934 c-10 -10 -9 -42 2 -48 18 -11 42 6 39 28 -3 21 -28 33
-41 20z m33 -18 c0 -11 -19 -15 -25 -6 -3 5 1 10 9 10 9 0 16 -2 16 -4z"/>
<path d="M2647 3934 c-13 -13 -7 -42 10 -48 21 -8 36 6 31 30 -3 19 -29 30
-41 18z m33 -25 c0 -5 -4 -9 -10 -9 -5 0 -10 7 -10 16 0 8 5 12 10 9 6 -3 10
-10 10 -16z"/>
<path d="M2165 3901 c-8 -15 3 -31 21 -31 9 0 14 7 12 17 -4 20 -24 28 -33 14z
m25 -11 c0 -5 -4 -10 -10 -10 -5 0 -10 5 -10 10 0 6 5 10 10 10 6 0 10 -4 10
-10z"/>
<path d="M2800 3889 c0 -14 5 -19 17 -17 26 5 29 38 4 38 -15 0 -21 -6 -21
-21z"/>
<path d="M2248 3379 c-26 -15 -22 -39 6 -39 31 0 56 28 35 41 -17 11 -20 11
-41 -2z m37 -19 c-3 -5 -15 -10 -26 -10 -11 0 -17 5 -14 10 3 6 15 10 26 10
11 0 17 -4 14 -10z"/>
<path d="M2265 3314 c-21 -22 -5 -39 29 -30 17 4 26 13 26 26 0 25 -32 27 -55
4z m39 -3 c3 -5 -1 -12 -10 -15 -20 -8 -29 -1 -19 13 8 13 22 14 29 2z"/>
<path d="M2720 3371 c0 -21 43 -41 58 -27 11 11 -14 41 -37 44 -16 3 -21 -2
-21 -17z m41 -7 c12 -14 11 -16 -5 -13 -11 2 -21 10 -24 17 -5 17 13 15 29 -4z"/>
<path d="M2690 3311 c0 -21 43 -41 58 -27 11 11 -14 41 -37 44 -16 3 -21 -2
-21 -17z m50 -12 c0 -11 -27 -12 -34 0 -3 4 -3 11 0 14 8 8 34 -3 34 -14z"/>
<path d="M3930 3186 c0 -2 18 -6 39 -8 22 -2 37 0 35 4 -5 8 -74 11 -74 4z"/>
<path d="M3950 3150 c0 -5 9 -10 20 -10 11 0 20 5 20 10 0 6 -9 10 -20 10 -11
0 -20 -4 -20 -10z"/>
<path d="M3961 3116 c12 -10 60 -16 54 -6 -3 5 -18 10 -32 10 -15 0 -24 -2
-22 -4z"/>
<path d="M3980 3080 c8 -5 22 -10 30 -10 13 0 13 1 0 10 -8 5 -22 10 -30 10
-13 0 -13 -1 0 -10z"/>
<path d="M4000 3036 c38 -13 54 -11 30 4 -8 6 -26 10 -40 9 -22 0 -20 -2 10
-13z"/>
<path d="M3984 3011 c3 -5 18 -11 33 -14 26 -5 26 -4 8 9 -21 15 -49 19 -41 5z"/>
<path d="M3981 2976 c2 -2 18 -6 34 -10 22 -5 26 -4 15 4 -14 9 -59 15 -49 6z"/>
<path d="M4000 2940 c8 -5 20 -10 25 -10 6 0 3 5 -5 10 -8 5 -19 10 -25 10 -5
0 -3 -5 5 -10z"/>
<path d="M4000 2910 c8 -5 20 -10 25 -10 6 0 3 5 -5 10 -8 5 -19 10 -25 10 -5
0 -3 -5 5 -10z"/>
<path d="M3990 2881 c0 -5 9 -11 21 -14 16 -4 18 -3 8 9 -13 16 -29 19 -29 5z"/>
<path d="M4006 2836 c21 -15 30 -14 19 3 -3 6 -14 11 -23 11 -13 0 -13 -2 4
-14z"/>
<path d="M4004 2805 c11 -8 22 -12 25 -9 6 6 -19 24 -34 24 -5 -1 -1 -7 9 -15z"/>
<path d="M3990 2780 c8 -5 20 -10 25 -10 6 0 3 5 -5 10 -8 5 -19 10 -25 10 -5
0 -3 -5 5 -10z"/>
<path d="M3988 2753 c7 -3 16 -2 19 1 4 3 -2 6 -13 5 -11 0 -14 -3 -6 -6z"/>
<path d="M984 3165 c-18 -14 -17 -14 8 -5 15 5 35 7 43 4 8 -4 15 -1 15 5 0
16 -43 13 -66 -4z"/>
<path d="M980 3134 c-14 -8 -17 -13 -7 -10 10 3 30 6 43 6 14 0 22 4 19 10 -9
14 -26 12 -55 -6z"/>
<path d="M963 3084 c-15 -15 -21 -22 -13 -16 8 5 31 17 50 25 28 12 31 16 13
16 -12 1 -35 -11 -50 -25z"/>
<path d="M964 3056 c-29 -22 -13 -24 26 -4 26 13 30 18 14 18 -11 0 -29 -6
-40 -14z"/>
<path d="M973 3028 c-13 -6 -23 -16 -23 -22 0 -6 5 -5 12 2 7 7 20 12 29 12
10 0 21 5 24 10 8 13 -14 12 -42 -2z"/>
<path d="M985 3000 c-12 -4 -27 -15 -35 -25 -10 -12 -5 -11 23 5 20 12 37 24
37 26 0 5 0 5 -25 -6z"/>
<path d="M959 2950 l-24 -19 33 12 c17 6 32 15 32 19 0 14 -17 9 -41 -12z"/>
<path d="M959 2913 c-13 -15 -12 -15 11 -3 34 17 36 20 18 20 -9 0 -22 -7 -29
-17z"/>
<path d="M964 2884 c-17 -14 -17 -15 -1 -10 10 3 23 6 28 6 5 0 9 5 9 10 0 14
-13 12 -36 -6z"/>
<path d="M974 2855 c-10 -8 -14 -14 -9 -15 15 0 40 18 34 24 -3 3 -14 -1 -25
-9z"/>
<path d="M981 2829 c-13 -5 -22 -11 -20 -14 8 -7 49 7 49 16 0 5 -1 9 -2 8 -2
0 -14 -5 -27 -10z"/>
<path d="M978 2793 c6 -2 18 -2 25 0 6 3 1 5 -13 5 -14 0 -19 -2 -12 -5z"/>
<path d="M988 2763 c7 -3 16 -2 19 1 4 3 -2 6 -13 5 -11 0 -14 -3 -6 -6z"/>
<path d="M988 2733 c6 -2 18 -2 25 0 6 3 1 5 -13 5 -14 0 -19 -2 -12 -5z"/>
<path d="M2465 2918 c-2 -7 -5 -26 -7 -43 -3 -28 -5 -30 -48 -30 -45 0 -45 0
-48 -37 l-3 -38 50 0 51 0 0 -134 0 -133 -72 -6 c-39 -3 -75 -4 -80 -1 -4 3
-8 43 -8 88 0 69 4 88 21 110 l20 26 -125 0 c-115 0 -146 -7 -116 -25 6 -4 10
-107 10 -276 0 -173 -4 -269 -10 -269 -5 0 -10 -7 -10 -15 0 -12 13 -15 63
-14 103 2 194 14 175 23 -16 7 -18 23 -18 112 l0 104 193 -2 192 -3 3 -91 c2
-72 0 -94 -13 -104 -8 -7 -15 -16 -15 -21 0 -12 237 -11 245 0 3 6 -1 13 -8
18 -21 12 -31 518 -11 538 22 21 17 38 -8 31 -13 -3 -70 -6 -127 -6 l-105 0
22 -20 c19 -18 22 -31 22 -110 l0 -90 -80 0 -80 0 0 135 0 135 49 0 c41 0 51
4 56 20 3 11 3 29 0 40 -5 16 -15 20 -56 20 l-49 0 0 40 c0 39 -1 40 -35 40
-20 0 -38 -6 -40 -12z m-185 -222 c0 -2 -16 -14 -35 -26 -34 -21 -35 -21 -65
-4 -16 10 -30 22 -30 26 0 4 29 8 65 8 36 0 65 -2 65 -4z m570 -1 c0 -2 -13
-11 -30 -20 -27 -14 -33 -14 -60 0 -16 9 -30 18 -30 20 0 3 27 5 60 5 33 0 60
-2 60 -5z m-650 -275 l0 -209 -30 -16 -30 -16 0 246 0 246 30 -21 30 -21 0
-209z m580 122 l0 -93 -30 21 c-30 21 -30 23 -30 111 l0 90 30 -18 c30 -17 30
-18 30 -111z m80 -112 c0 -132 -3 -240 -7 -240 -5 0 -17 7 -28 16 -19 14 -20
29 -23 222 l-3 207 28 17 c15 10 29 18 31 18 1 0 2 -108 2 -240z m-580 141 c0
-82 -2 -91 -22 -105 -12 -9 -26 -16 -30 -16 -5 0 -8 40 -8 89 0 82 2 91 22
105 12 9 26 16 30 16 5 0 8 -40 8 -89z m418 -113 c-3 -9 -52 -15 -169 -20
-199 -9 -251 -3 -222 25 3 4 94 7 201 7 150 0 193 -3 190 -12z m-4 -54 c4 -9
5 -18 3 -20 -1 -2 -90 -4 -197 -4 -167 -2 -195 0 -198 14 -4 18 28 22 234 24
133 2 153 0 158 -14z m86 -92 l0 -98 -30 -17 -30 -18 0 98 c0 96 1 98 28 115
15 9 28 17 30 17 1 1 2 -43 2 -97z m-522 72 c20 -14 22 -23 22 -110 0 -52 -2
-94 -5 -94 -3 0 -17 7 -30 16 -24 15 -25 21 -25 110 0 52 3 94 8 94 4 0 18 -7
30 -16z m-13 -214 l30 -20 -52 0 c-28 0 -60 -3 -70 -6 -12 -4 -9 2 10 20 34
31 43 32 82 6z m596 0 l24 -19 -72 -1 c-40 0 -73 2 -73 5 0 9 55 34 76 35 12
0 32 -9 45 -20z"/>
<path d="M3445 2720 c-11 -5 -68 -6 -127 -3 -129 7 -178 -7 -232 -68 -32 -34
-36 -45 -36 -92 0 -84 40 -122 163 -153 83 -20 117 -45 117 -84 0 -25 -5 -31
-38 -41 -60 -18 -117 3 -173 62 -26 27 -49 49 -52 49 -3 0 -7 -51 -9 -112 -2
-62 -8 -122 -13 -132 -7 -17 -6 -18 11 -10 22 10 98 10 201 -1 150 -16 263 60
263 175 0 86 -75 162 -180 185 -85 18 -126 58 -93 90 39 39 120 26 182 -31 21
-19 41 -34 45 -34 3 0 6 47 6 105 0 58 -3 105 -7 104 -5 0 -17 -4 -28 -9z m-5
-31 c0 -13 -33 -19 -113 -19 -59 0 -94 -6 -124 -19 -48 -22 -63 -45 -63 -96 0
-50 33 -78 131 -110 138 -46 188 -124 122 -187 -84 -80 -237 -56 -289 44 l-14
26 50 -33 c27 -18 67 -36 88 -40 72 -12 138 34 125 86 -9 32 -48 58 -121 78
-92 25 -131 48 -156 90 -16 28 -17 38 -8 70 12 39 48 79 97 105 24 13 55 15
153 14 67 -2 122 -6 122 -9z m20 -56 l0 -36 -27 24 c-16 13 -30 25 -32 26 -4
3 39 21 52 22 4 1 7 -16 7 -36z m-52 -11 c18 -13 37 -32 42 -43 9 -15 2 -13
-36 10 -59 38 -92 45 -144 31 -51 -14 -69 -49 -45 -87 17 -26 42 -38 113 -54
97 -21 162 -89 162 -167 0 -115 -121 -181 -280 -154 -39 7 -84 12 -101 12 -28
0 -30 2 -18 16 11 14 27 15 106 10 55 -4 107 -3 130 3 52 14 93 59 100 108 9
66 -47 116 -174 157 -94 31 -125 77 -92 137 28 53 174 65 237 21z m-280 -403
c-31 -20 -44 -10 -40 28 l5 37 24 -28 c19 -23 22 -31 11 -37z"/>
<path d="M1670 2711 c0 -5 7 -15 17 -22 14 -13 15 -40 10 -274 -4 -170 -9
-261 -16 -263 -6 -2 -11 -9 -11 -16 0 -9 29 -11 118 -8 64 2 119 6 121 8 2 2
-4 10 -12 19 -14 14 -15 47 -10 273 4 200 8 259 19 268 8 6 11 14 7 17 -10 10
-243 8 -243 -2z m185 -21 c-3 -6 -19 -17 -36 -25 -26 -14 -32 -14 -59 0 -47
24 -36 35 36 35 41 0 63 -4 59 -10z m-76 -230 c-1 -204 -7 -248 -36 -268 l-23
-14 0 241 0 242 30 -18 30 -17 -1 -166z m85 -37 c-4 -131 -8 -240 -10 -242 -2
-2 -15 4 -29 13 l-25 16 0 209 c0 205 0 209 23 224 48 34 48 34 41 -220z m-45
-252 l23 -18 -53 -6 c-63 -8 -72 -2 -39 23 31 24 39 24 69 1z"/>
<path d="M3771 1896 c-1 -37 2 -47 10 -39 8 8 8 22 1 50 l-10 38 -1 -49z"/>
<path d="M3740 1868 c0 -32 3 -39 10 -28 13 20 13 70 0 70 -5 0 -10 -19 -10
-42z"/>
<path d="M3713 1855 c0 -22 2 -30 4 -17 2 12 2 30 0 40 -3 9 -5 -1 -4 -23z"/>
<path d="M3688 1874 c-5 -4 -8 -21 -7 -38 0 -30 0 -30 10 -7 11 27 8 57 -3 45z"/>
<path d="M3652 1820 c0 -14 2 -19 5 -12 2 6 2 18 0 25 -3 6 -5 1 -5 -13z"/>
<path d="M3597 1824 c-4 -4 -7 -17 -7 -28 1 -19 1 -20 11 -3 11 19 8 43 -4 31z"/>
<path d="M3618 1805 c-6 -28 6 -34 16 -9 8 22 7 34 -3 34 -5 0 -11 -11 -13
-25z"/>
<path d="M1216 1904 c-9 -24 -7 -62 4 -69 6 -4 10 12 10 39 0 48 -4 56 -14 30z"/>
<path d="M1246 1877 c-5 -9 -5 -29 0 -45 7 -25 8 -26 11 -4 3 12 3 32 0 45 -3
19 -4 20 -11 4z"/>
<path d="M1278 1858 c-3 -7 -1 -24 3 -38 6 -22 7 -20 8 13 1 38 -3 47 -11 25z"/>
<path d="M1307 1841 c-6 -26 0 -51 14 -51 11 0 11 27 0 54 -7 19 -8 19 -14 -3z"/>
<path d="M1340 1802 c0 -18 5 -32 10 -32 6 0 8 11 4 28 -10 39 -14 40 -14 4z"/>
<path d="M1364 1807 c3 -10 6 -25 6 -33 0 -8 5 -14 11 -14 12 0 2 40 -14 55
-7 7 -8 4 -3 -8z"/>
<path d="M1390 1798 c0 -7 5 -20 10 -28 8 -12 10 -11 10 7 0 12 -4 25 -10 28
-5 3 -10 0 -10 -7z"/>
<path d="M2881 1226 c-12 -14 -5 -26 16 -26 15 0 18 26 4 34 -5 3 -14 0 -20
-8z"/>
<path d="M3654 1229 c-10 -17 13 -36 27 -22 12 12 4 33 -11 33 -5 0 -12 -5
-16 -11z"/>
<path d="M3864 1234 c-7 -3 -10 -22 -6 -51 5 -44 4 -46 -18 -40 -33 9 -67 -8
-85 -42 -33 -64 -7 -144 45 -142 60 2 76 3 100 8 22 4 23 6 7 14 -15 9 -17 27
-17 134 0 69 -3 125 -7 124 -5 0 -13 -3 -19 -5z m-16 -116 c7 -7 12 -38 12
-70 0 -46 -4 -59 -19 -68 -47 -25 -91 73 -57 125 18 27 45 32 64 13z"/>
<path d="M4231 1231 c-9 -6 -10 -11 -2 -15 6 -4 11 -23 11 -41 0 -32 -2 -34
-28 -29 -36 7 -77 -24 -92 -71 -10 -30 -9 -41 7 -73 15 -30 24 -38 51 -40 18
-2 39 2 47 8 10 8 14 8 17 -1 2 -7 12 -9 27 -4 17 5 20 10 12 18 -7 7 -11 58
-11 134 0 125 -4 136 -39 114z m-7 -110 c13 -14 16 -33 14 -77 -3 -55 -5 -59
-30 -62 -53 -6 -81 95 -38 138 25 25 32 25 54 1z"/>
<path d="M1470 1210 c0 -11 7 -20 15 -20 8 0 15 9 15 20 0 11 -7 20 -15 20 -8
0 -15 -9 -15 -20z"/>
<path d="M1615 1205 c-14 -13 -25 -36 -25 -50 0 -19 -5 -25 -22 -26 l-23 0 23
-9 c20 -8 22 -16 22 -78 0 -39 -5 -73 -12 -80 -9 -9 -3 -12 27 -12 30 0 36 3
27 12 -7 7 -12 41 -12 84 0 72 0 73 28 77 l27 4 -27 2 c-25 1 -28 5 -28 35 0
18 7 39 15 46 13 11 20 9 39 -9 15 -14 26 -18 30 -12 4 5 13 8 20 5 18 -7 31
15 18 28 -8 8 -15 8 -26 -1 -10 -8 -16 -9 -21 -1 -11 18 -55 11 -80 -15z"/>
<path d="M2002 1214 c4 -21 22 -23 26 -1 2 10 -3 17 -13 17 -10 0 -15 -6 -13
-16z"/>
<path d="M2368 1210 c21 -9 22 -15 22 -110 0 -94 2 -103 25 -125 19 -20 34
-25 75 -25 41 0 56 5 75 25 23 22 25 31 25 123 0 63 4 102 12 110 9 9 5 12
-21 12 -29 0 -31 -1 -17 -16 19 -18 22 -143 5 -192 -19 -55 -104 -68 -130 -20
-6 12 -14 61 -17 108 -4 72 -2 89 12 103 16 16 14 17 -36 16 -42 0 -48 -2 -30
-9z"/>
<path d="M728 1198 c8 -8 12 -51 12 -125 0 -108 -1 -114 -22 -123 -18 -7 -9
-9 37 -9 45 0 56 2 43 10 -14 8 -18 23 -18 64 l0 55 40 0 c49 0 80 27 80 69 0
48 -39 71 -118 71 -51 0 -63 -3 -54 -12z m112 -18 c37 -37 14 -100 -36 -100
-20 0 -23 6 -26 53 -3 28 -3 55 -1 60 8 14 43 7 63 -13z"/>
<path d="M1353 1154 c-12 -19 -18 -36 -12 -39 5 -4 9 -40 9 -80 0 -62 3 -76
19 -84 13 -7 24 -6 37 4 18 14 18 14 -3 15 -22 0 -23 4 -23 74 0 69 2 75 23
79 22 4 22 4 0 6 -16 1 -23 8 -25 29 l-3 29 -22 -33z"/>
<path d="M3974 1140 c-26 -10 -35 -32 -23 -51 8 -12 10 -12 19 1 5 8 10 20 10
26 0 19 28 24 45 8 24 -25 18 -39 -30 -62 -50 -24 -60 -40 -51 -77 5 -19 13
-25 34 -25 15 0 34 6 41 13 11 10 14 10 18 0 6 -18 38 -16 53 2 11 13 10 14
-4 9 -14 -5 -16 3 -16 64 0 62 -3 73 -22 86 -25 18 -42 19 -74 6z m55 -146
c-16 -19 -48 -18 -56 2 -8 21 7 46 38 61 23 12 24 11 27 -18 2 -17 -2 -37 -9
-45z"/>
<path d="M1854 1130 c-33 -13 -54 -50 -54 -95 1 -43 13 -65 47 -83 27 -15 67
-1 82 27 15 27 14 38 -1 19 -21 -26 -45 -28 -72 -7 -21 16 -26 29 -26 63 0 23
5 47 12 54 19 19 55 14 61 -8 6 -22 37 -28 37 -6 0 29 -51 50 -86 36z"/>
<path d="M1995 1124 c-18 -8 -23 -13 -12 -14 15 0 17 -10 17 -74 0 -50 -4 -76
-12 -79 -7 -3 7 -6 31 -6 38 -1 42 1 28 12 -12 9 -17 31 -19 93 l-3 81 -30
-13z"/>
<path d="M2112 1124 c-23 -16 -29 -39 -12 -49 6 -3 14 5 19 18 12 31 24 39 45
31 32 -12 18 -51 -26 -76 -35 -19 -44 -29 -46 -56 -4 -39 17 -51 61 -34 22 9
33 9 38 1 8 -13 49 -2 49 12 0 6 -4 8 -9 5 -4 -3 -11 27 -13 66 -4 53 -10 75
-24 85 -24 17 -55 16 -82 -3z m56 -145 c-23 -15 -43 -5 -46 23 -3 21 3 30 25
42 l28 14 3 -35 c2 -22 -2 -39 -10 -44z"/>
<path d="M2660 1125 c-19 -11 -21 -14 -7 -15 14 0 17 -10 17 -70 0 -55 -3 -71
-17 -79 -14 -8 -7 -10 32 -10 39 0 46 2 33 10 -14 8 -18 24 -18 73 0 57 2 64
25 76 36 19 45 5 48 -74 1 -50 -2 -69 -13 -76 -11 -7 -2 -10 30 -9 25 0 39 3
33 6 -9 3 -13 26 -13 63 0 103 -27 138 -82 107 -24 -14 -28 -14 -28 -2 0 18
-8 18 -40 0z"/>
<path d="M2873 1130 c-25 -10 -31 -22 -10 -17 8 1 13 -19 15 -68 2 -57 0 -72
-14 -82 -15 -11 -12 -13 26 -13 34 0 41 3 32 12 -7 7 -12 44 -12 95 0 46 -3
83 -7 82 -5 0 -18 -4 -30 -9z"/>
<path d="M2973 1107 c12 -18 33 -61 47 -95 14 -34 27 -62 30 -62 3 0 18 35 34
78 16 42 35 85 44 95 14 16 13 17 -11 17 -19 0 -25 -4 -21 -15 6 -16 -25 -115
-37 -115 -3 0 -16 23 -28 51 -16 39 -18 55 -10 65 9 11 4 14 -29 14 l-41 0 22
-33z"/>
<path d="M3198 1130 c-23 -14 -41 -74 -33 -110 7 -33 48 -70 77 -70 20 0 68
42 68 60 0 5 -9 1 -20 -10 -11 -11 -27 -20 -35 -20 -23 0 -65 46 -65 70 0 18
6 20 60 20 65 0 72 8 44 48 -16 24 -65 30 -96 12z m60 -12 c24 -24 13 -38 -28
-38 -26 0 -40 5 -40 13 0 18 21 37 40 37 9 0 21 -5 28 -12z"/>
<path d="M3351 1131 c-9 -6 -10 -11 -2 -15 15 -10 14 -129 -1 -144 -9 -9 -3
-12 27 -12 26 0 35 3 27 9 -9 5 -13 28 -12 72 1 35 1 72 1 82 -1 18 -18 22
-40 8z"/>
<path d="M3407 1134 c-13 -14 -7 -20 24 -22 21 -2 30 2 27 10 -5 15 -40 23
-51 12z"/>
<path d="M3492 1128 c-7 -7 -12 -24 -12 -38 0 -19 10 -31 45 -52 47 -29 55
-47 31 -67 -17 -14 -49 -1 -65 27 -9 15 -10 13 -11 -9 0 -23 5 -28 35 -33 39
-8 71 5 80 33 9 29 -4 50 -52 78 -50 29 -54 56 -10 61 21 3 29 -2 36 -20 10
-23 10 -22 10 5 1 25 -2 27 -37 27 -21 0 -43 -5 -50 -12z"/>
<path d="M3640 1130 c-11 -7 -12 -10 -2 -10 10 0 13 -19 10 -80 l-3 -80 35 1
c19 0 29 3 23 6 -9 3 -13 31 -13 89 0 73 -2 84 -17 84 -10 0 -25 -5 -33 -10z"/>
<path d="M965 1107 c-18 -15 -28 -36 -32 -64 -5 -37 -2 -45 25 -73 39 -39 74
-39 113 -1 81 82 -19 213 -106 138z m82 -14 c23 -35 24 -107 2 -129 -37 -36
-79 11 -79 89 0 69 44 91 77 40z"/>
<path d="M1142 1123 c-10 -4 -10 -8 -2 -19 7 -8 10 -41 8 -84 -3 -64 -1 -70
17 -70 18 0 20 6 17 70 -3 67 -3 70 22 82 20 8 29 9 38 0 17 -17 23 -119 8
-137 -11 -13 -8 -15 16 -15 l29 0 -6 72 c-3 40 -9 81 -13 91 -10 22 -54 22
-78 0 -17 -15 -18 -15 -18 0 0 17 -13 20 -38 10z"/>
<path d="M1462 1123 c-10 -4 -10 -8 -2 -19 7 -8 10 -41 8 -84 l-3 -70 30 1
c17 0 24 3 18 6 -9 3 -13 31 -13 89 0 85 -3 91 -38 77z"/>
<path d="M1700 1120 c-10 -6 -11 -10 -2 -10 8 0 12 -22 12 -74 0 -50 -4 -76
-12 -79 -7 -3 6 -6 30 -6 40 -1 42 0 28 15 -12 11 -16 36 -16 90 0 76 -6 86
-40 64z"/>
<path d="M3097 818 c-112 -266 -155 -356 -180 -380 l-29 -28 66 0 c37 0 66 4
66 10 0 6 -9 10 -20 10 -27 0 -27 38 0 90 l20 40 80 0 80 0 20 -40 c27 -52 27
-90 0 -90 -11 0 -20 -4 -20 -10 0 -12 79 -12 135 -1 22 5 32 9 23 10 -28 2
-52 44 -133 231 -43 99 -81 183 -86 186 -5 2 -15 -10 -22 -28z m42 -153 c17
-41 31 -77 31 -80 0 -3 -31 -5 -70 -5 -38 0 -70 2 -70 5 0 14 64 155 70 155 4
0 21 -34 39 -75z"/>
<path d="M4051 828 c-12 -30 -135 -315 -152 -351 -7 -16 -24 -35 -38 -42 -24
-13 -20 -14 49 -14 46 1 65 4 50 8 -32 9 -36 31 -14 86 l17 45 87 0 87 0 16
-37 c25 -59 25 -75 -3 -90 -22 -11 -15 -13 65 -12 74 0 86 2 67 12 -28 13 -46
47 -137 260 -38 86 -72 157 -77 157 -5 0 -12 -10 -17 -22z m65 -224 c6 -24 5
-24 -65 -24 -39 0 -71 4 -71 9 0 5 16 44 36 87 l37 79 28 -64 c16 -35 32 -74
35 -87z"/>
<path d="M1100 648 c-61 -145 -89 -200 -113 -220 l-31 -28 67 0 c64 0 89 12
47 23 -25 6 -25 30 0 85 l19 42 84 0 84 0 20 -52 c23 -60 20 -78 -10 -78 -14
0 -18 -3 -11 -10 6 -6 39 -6 89 -1 44 5 72 9 63 10 -28 2 -50 40 -133 234 -44
103 -83 187 -86 187 -4 0 -44 -87 -89 -192z m140 -70 c0 -4 -31 -8 -70 -8 -38
0 -70 2 -70 4 0 2 9 26 21 53 11 26 27 64 35 83 l15 35 35 -79 c18 -44 34 -83
34 -88z"/>
<path d="M1855 830 c-19 -8 -19 -9 3 -9 35 -1 42 -37 42 -210 0 -164 -5 -185
-45 -194 -11 -3 55 -5 148 -6 l167 -1 10 25 c5 14 13 38 17 53 6 24 3 23 -34
-16 l-41 -43 -78 3 -79 3 -3 93 -3 92 63 0 c71 0 83 -5 97 -40 8 -20 10 -9 10
50 0 53 -3 69 -9 53 -13 -31 -41 -43 -104 -43 l-56 0 0 85 0 86 88 -3 87 -3
17 -35 18 -35 0 53 0 52 -147 -1 c-82 0 -157 -4 -168 -9z"/>
<path d="M2255 828 c42 -23 45 -35 45 -208 0 -174 -4 -193 -45 -203 -11 -3 23
-5 75 -5 52 0 86 3 75 5 -40 10 -45 23 -45 109 0 81 1 84 23 84 17 0 41 -24
97 -100 l74 -100 61 1 60 0 -41 18 c-29 14 -57 41 -102 102 l-62 83 34 18 c46
24 66 54 66 101 0 47 -31 81 -86 96 -54 15 -256 14 -229 -1z m220 -43 c27 -26
33 -72 15 -106 -14 -25 -62 -49 -100 -49 l-30 0 0 90 0 90 45 0 c35 0 52 -6
70 -25z"/>
<path d="M2708 825 l32 -14 0 -186 0 -186 -32 -14 c-31 -13 -28 -14 67 -14 93
0 98 1 69 13 -17 8 -34 21 -38 31 -9 23 -7 337 2 352 4 7 19 16 32 22 19 7 3
10 -70 10 -90 0 -93 0 -62 -14z"/>
<path d="M3377 829 c57 -17 63 -36 63 -209 0 -163 -5 -184 -45 -193 -11 -3 14
-5 55 -4 41 0 65 2 52 4 -35 7 -43 43 -40 190 l3 135 145 -173 145 -173 3 199
c1 120 7 203 13 211 6 7 20 15 32 17 12 2 -12 4 -53 5 -45 0 -65 -3 -50 -7 24
-6 25 -12 31 -96 10 -129 10 -205 2 -204 -5 0 -65 70 -136 155 l-128 154 -62
-1 c-55 -1 -58 -2 -30 -10z"/>
<path d="M777 823 c43 -8 48 -27 51 -207 3 -135 0 -175 -11 -190 -13 -18 -15
-17 -36 13 -12 17 -31 31 -41 31 -39 0 -31 -62 10 -75 31 -10 75 3 100 30 31
33 39 82 40 236 0 142 3 151 45 162 11 2 -25 5 -80 4 -55 0 -90 -2 -78 -4z"/>
<path d="M1371 819 c27 -10 45 -43 164 -311 26 -60 51 -108 55 -108 4 0 29 53
55 118 111 270 117 282 144 297 25 13 22 14 -44 14 -52 0 -64 -3 -47 -9 13 -6
22 -18 22 -30 0 -21 -96 -267 -110 -283 -9 -10 -132 268 -128 290 2 9 14 20
28 24 14 4 -17 7 -70 7 -72 0 -89 -2 -69 -9z"/>
<path d="M2745 322 c-6 -4 -9 -44 -7 -94 3 -83 5 -88 27 -94 50 -12 94 41 75
91 -12 31 -37 42 -61 27 -16 -10 -18 -7 -21 33 -2 27 -7 42 -13 37z m73 -123
c3 -39 -17 -65 -43 -55 -10 3 -15 19 -15 44 0 45 6 54 35 50 15 -2 21 -12 23
-39z"/>
<path d="M2886 321 c-4 -5 -2 -12 3 -15 5 -4 12 -2 15 3 4 5 2 12 -3 15 -5 4
-12 2 -15 -3z"/>
<path d="M2018 305 c-30 -17 -53 -73 -43 -107 20 -66 101 -92 141 -45 19 22
19 22 -2 4 -11 -9 -32 -17 -47 -17 -78 0 -91 125 -17 162 25 13 29 18 15 18
-11 -1 -32 -7 -47 -15z"/>
<path d="M2110 312 c-14 -6 -14 -9 2 -24 17 -17 18 -17 18 7 0 14 -1 25 -2 24
-2 0 -10 -3 -18 -7z"/>
<path d="M2312 242 c3 -43 2 -86 -4 -95 -7 -14 -5 -17 14 -17 23 0 23 2 20 95
-3 78 -6 95 -19 95 -14 0 -15 -11 -11 -78z"/>
<path d="M2180 240 c-39 -39 -15 -110 38 -110 30 0 52 27 52 64 0 58 -51 85
-90 46z m60 -10 c6 -12 10 -35 8 -53 -6 -61 -68 -40 -68 23 0 47 40 67 60 30z"/>
<path d="M2404 252 c-37 -24 -39 -93 -4 -112 45 -24 90 5 90 57 0 43 -54 77
-86 55z m56 -31 c14 -36 11 -60 -12 -74 -25 -16 -48 9 -48 53 0 20 3 40 7 43
15 16 41 5 53 -22z"/>
<path d="M2524 254 c-9 -4 -9 -14 -1 -39 7 -25 7 -42 -1 -60 -10 -23 -9 -25
11 -25 21 0 22 3 19 65 -4 64 -6 68 -28 59z"/>
<path d="M2565 250 c-4 -6 -3 -10 2 -9 30 5 35 -2 31 -56 -3 -53 -2 -55 22
-54 14 0 19 3 13 6 -8 3 -13 23 -13 48 0 34 5 47 20 55 15 8 21 6 30 -9 14
-26 13 -74 -2 -89 -9 -9 -6 -12 13 -12 24 0 25 2 19 53 -3 28 -9 58 -13 65
-10 15 -39 16 -54 1 -8 -8 -13 -8 -17 0 -9 14 -43 14 -51 1z"/>
<path d="M2877 254 c-3 -4 -1 -16 4 -27 6 -11 9 -35 6 -53 -4 -25 -2 -34 9
-34 11 0 14 14 14 60 0 43 -4 60 -13 60 -8 0 -17 -3 -20 -6z"/>
<path d="M2957 254 c-10 -11 -9 -34 3 -34 6 0 10 7 10 15 0 8 9 15 21 15 18 0
20 -5 17 -47 -2 -36 -7 -49 -20 -51 -12 -2 -18 3 -18 17 0 11 8 25 18 30 9 6
11 11 5 11 -7 0 -22 -9 -33 -20 -16 -16 -18 -25 -10 -40 12 -23 15 -24 40 -10
12 6 21 7 25 0 3 -5 12 -7 21 -3 10 3 11 9 5 17 -5 6 -11 32 -13 56 -3 42 -5
45 -33 48 -17 2 -34 0 -38 -4z"/>
<path d="M3140 228 l0 -21 323 6 c177 4 433 7 570 7 213 0 247 2 247 15 0 13
-70 15 -570 15 l-570 0 0 -22z"/>
<path d="M730 220 c0 -20 7 -20 363 -20 502 0 767 9 767 27 0 11 -99 13 -565
13 -558 0 -565 0 -565 -20z"/>
</g>
</svg>
